<?xml version="1.0" encoding="utf-8" standalone="no"?>
<!DOCTYPE svg PUBLIC "-//W3C//DTD SVG 1.1//EN"
  "http://www.w3.org/Graphics/SVG/1.1/DTD/svg11.dtd">
<!-- Created with matplotlib (https://matplotlib.org/) -->
<svg height="720pt" version="1.1" viewBox="0 0 1152 720" width="1152pt" xmlns="http://www.w3.org/2000/svg" xmlns:xlink="http://www.w3.org/1999/xlink">
 <defs>
  <style type="text/css">
*{stroke-linecap:butt;stroke-linejoin:round;}
  </style>
 </defs>
 <g id="figure_1">
  <g id="patch_1">
   <path d="M 0 720 
L 1152 720 
L 1152 0 
L 0 0 
z
" style="fill:#ffffff;"/>
  </g>
  <g id="axes_1">
   <g id="patch_2">
    <path d="M 144 640.8 
L 1036.8 640.8 
L 1036.8 86.4 
L 144 86.4 
z
" style="fill:#ffffcc;"/>
   </g>
   <g id="patch_3">
    <path clip-path="url(#pfd66995547)" d="M 184.581818 640.8 
L 224.662626 640.8 
L 224.662626 640.04232 
L 184.581818 640.04232 
z
" style="fill:#0000ff;"/>
   </g>
   <g id="patch_4">
    <path clip-path="url(#pfd66995547)" d="M 224.662626 640.8 
L 264.743434 640.8 
L 264.743434 640.04232 
L 224.662626 640.04232 
z
" style="fill:#0000ff;"/>
   </g>
   <g id="patch_5">
    <path clip-path="url(#pfd66995547)" d="M 264.743434 640.8 
L 304.824242 640.8 
L 304.824242 640.04232 
L 264.743434 640.04232 
z
" style="fill:#0000ff;"/>
   </g>
   <g id="patch_6">
    <path clip-path="url(#pfd66995547)" d="M 304.824242 640.8 
L 344.905051 640.8 
L 344.905051 640.04232 
L 304.824242 640.04232 
z
" style="fill:#0000ff;"/>
   </g>
   <g id="patch_7">
    <path clip-path="url(#pfd66995547)" d="M 344.905051 640.8 
L 384.985859 640.8 
L 384.985859 640.04232 
L 344.905051 640.04232 
z
" style="fill:#0000ff;"/>
   </g>
   <g id="patch_8">
    <path clip-path="url(#pfd66995547)" d="M 384.985859 640.8 
L 425.066667 640.8 
L 425.066667 639.9684 
L 384.985859 639.9684 
z
" style="fill:#0000ff;"/>
   </g>
   <g id="patch_9">
    <path clip-path="url(#pfd66995547)" d="M 425.066667 640.8 
L 465.147475 640.8 
L 465.147475 639.65424 
L 425.066667 639.65424 
z
" style="fill:#0000ff;"/>
   </g>
   <g id="patch_10">
    <path clip-path="url(#pfd66995547)" d="M 465.147475 640.8 
L 505.228283 640.8 
L 505.228283 638.56392 
L 465.147475 638.56392 
z
" style="fill:#0000ff;"/>
   </g>
   <g id="patch_11">
    <path clip-path="url(#pfd66995547)" d="M 505.228283 640.8 
L 545.309091 640.8 
L 545.309091 637.14096 
L 505.228283 637.14096 
z
" style="fill:#0000ff;"/>
   </g>
   <g id="patch_12">
    <path clip-path="url(#pfd66995547)" d="M 545.309091 640.8 
L 585.389899 640.8 
L 585.389899 636.03216 
L 545.309091 636.03216 
z
" style="fill:#0000ff;"/>
   </g>
   <g id="patch_13">
    <path clip-path="url(#pfd66995547)" d="M 585.389899 640.8 
L 625.470707 640.8 
L 625.470707 632.6688 
L 585.389899 632.6688 
z
" style="fill:#0000ff;"/>
   </g>
   <g id="patch_14">
    <path clip-path="url(#pfd66995547)" d="M 625.470707 640.8 
L 665.551515 640.8 
L 665.551515 630.24792 
L 625.470707 630.24792 
z
" style="fill:#0000ff;"/>
   </g>
   <g id="patch_15">
    <path clip-path="url(#pfd66995547)" d="M 665.551515 640.8 
L 705.632323 640.8 
L 705.632323 625.4616 
L 665.551515 625.4616 
z
" style="fill:#0000ff;"/>
   </g>
   <g id="patch_16">
    <path clip-path="url(#pfd66995547)" d="M 705.632323 640.8 
L 745.713131 640.8 
L 745.713131 617.01624 
L 705.632323 617.01624 
z
" style="fill:#0000ff;"/>
   </g>
   <g id="patch_17">
    <path clip-path="url(#pfd66995547)" d="M 745.713131 640.8 
L 785.793939 640.8 
L 785.793939 604.302 
L 745.713131 604.302 
z
" style="fill:#0000ff;"/>
   </g>
   <g id="patch_18">
    <path clip-path="url(#pfd66995547)" d="M 785.793939 640.8 
L 825.874747 640.8 
L 825.874747 590.09088 
L 785.793939 590.09088 
z
" style="fill:#0000ff;"/>
   </g>
   <g id="patch_19">
    <path clip-path="url(#pfd66995547)" d="M 825.874747 640.8 
L 865.955556 640.8 
L 865.955556 557.3628 
L 825.874747 557.3628 
z
" style="fill:#0000ff;"/>
   </g>
   <g id="patch_20">
    <path clip-path="url(#pfd66995547)" d="M 865.955556 640.8 
L 906.036364 640.8 
L 906.036364 530.40048 
L 865.955556 530.40048 
z
" style="fill:#0000ff;"/>
   </g>
   <g id="patch_21">
    <path clip-path="url(#pfd66995547)" d="M 906.036364 640.8 
L 946.117172 640.8 
L 946.117172 497.83872 
L 906.036364 497.83872 
z
" style="fill:#0000ff;"/>
   </g>
   <g id="patch_22">
    <path clip-path="url(#pfd66995547)" d="M 946.117172 640.8 
L 986.19798 640.8 
L 986.19798 461.1744 
L 946.117172 461.1744 
z
" style="fill:#0000ff;"/>
   </g>
   <g id="patch_23">
    <path clip-path="url(#pfd66995547)" d="M 184.581818 640.04232 
L 224.662626 640.04232 
L 224.662626 640.04232 
L 184.581818 640.04232 
z
" style="fill:#add8e6;"/>
   </g>
   <g id="patch_24">
    <path clip-path="url(#pfd66995547)" d="M 224.662626 640.04232 
L 264.743434 640.04232 
L 264.743434 640.04232 
L 224.662626 640.04232 
z
" style="fill:#add8e6;"/>
   </g>
   <g id="patch_25">
    <path clip-path="url(#pfd66995547)" d="M 264.743434 640.04232 
L 304.824242 640.04232 
L 304.824242 640.04232 
L 264.743434 640.04232 
z
" style="fill:#add8e6;"/>
   </g>
   <g id="patch_26">
    <path clip-path="url(#pfd66995547)" d="M 304.824242 640.04232 
L 344.905051 640.04232 
L 344.905051 640.04232 
L 304.824242 640.04232 
z
" style="fill:#add8e6;"/>
   </g>
   <g id="patch_27">
    <path clip-path="url(#pfd66995547)" d="M 344.905051 640.04232 
L 384.985859 640.04232 
L 384.985859 640.04232 
L 344.905051 640.04232 
z
" style="fill:#add8e6;"/>
   </g>
   <g id="patch_28">
    <path clip-path="url(#pfd66995547)" d="M 384.985859 639.9684 
L 425.066667 639.9684 
L 425.066667 639.9684 
L 384.985859 639.9684 
z
" style="fill:#add8e6;"/>
   </g>
   <g id="patch_29">
    <path clip-path="url(#pfd66995547)" d="M 425.066667 639.65424 
L 465.147475 639.65424 
L 465.147475 639.65424 
L 425.066667 639.65424 
z
" style="fill:#add8e6;"/>
   </g>
   <g id="patch_30">
    <path clip-path="url(#pfd66995547)" d="M 465.147475 638.56392 
L 505.228283 638.56392 
L 505.228283 638.56392 
L 465.147475 638.56392 
z
" style="fill:#add8e6;"/>
   </g>
   <g id="patch_31">
    <path clip-path="url(#pfd66995547)" d="M 505.228283 637.14096 
L 545.309091 637.14096 
L 545.309091 637.14096 
L 505.228283 637.14096 
z
" style="fill:#add8e6;"/>
   </g>
   <g id="patch_32">
    <path clip-path="url(#pfd66995547)" d="M 545.309091 636.03216 
L 585.389899 636.03216 
L 585.389899 635.03424 
L 545.309091 635.03424 
z
" style="fill:#add8e6;"/>
   </g>
   <g id="patch_33">
    <path clip-path="url(#pfd66995547)" d="M 585.389899 632.6688 
L 625.470707 632.6688 
L 625.470707 630.98712 
L 585.389899 630.98712 
z
" style="fill:#add8e6;"/>
   </g>
   <g id="patch_34">
    <path clip-path="url(#pfd66995547)" d="M 625.470707 630.24792 
L 665.551515 630.24792 
L 665.551515 623.81688 
L 625.470707 623.81688 
z
" style="fill:#add8e6;"/>
   </g>
   <g id="patch_35">
    <path clip-path="url(#pfd66995547)" d="M 665.551515 625.4616 
L 705.632323 625.4616 
L 705.632323 605.65104 
L 665.551515 605.65104 
z
" style="fill:#add8e6;"/>
   </g>
   <g id="patch_36">
    <path clip-path="url(#pfd66995547)" d="M 705.632323 617.01624 
L 745.713131 617.01624 
L 745.713131 580.70304 
L 705.632323 580.70304 
z
" style="fill:#add8e6;"/>
   </g>
   <g id="patch_37">
    <path clip-path="url(#pfd66995547)" d="M 745.713131 604.302 
L 785.793939 604.302 
L 785.793939 554.70168 
L 745.713131 554.70168 
z
" style="fill:#add8e6;"/>
   </g>
   <g id="patch_38">
    <path clip-path="url(#pfd66995547)" d="M 785.793939 590.09088 
L 825.874747 590.09088 
L 825.874747 483.01776 
L 785.793939 483.01776 
z
" style="fill:#add8e6;"/>
   </g>
   <g id="patch_39">
    <path clip-path="url(#pfd66995547)" d="M 825.874747 557.3628 
L 865.955556 557.3628 
L 865.955556 428.50176 
L 825.874747 428.50176 
z
" style="fill:#add8e6;"/>
   </g>
   <g id="patch_40">
    <path clip-path="url(#pfd66995547)" d="M 865.955556 530.40048 
L 906.036364 530.40048 
L 906.036364 359.66376 
L 865.955556 359.66376 
z
" style="fill:#add8e6;"/>
   </g>
   <g id="patch_41">
    <path clip-path="url(#pfd66995547)" d="M 906.036364 497.83872 
L 946.117172 497.83872 
L 946.117172 272.99256 
L 906.036364 272.99256 
z
" style="fill:#add8e6;"/>
   </g>
   <g id="patch_42">
    <path clip-path="url(#pfd66995547)" d="M 946.117172 461.1744 
L 986.19798 461.1744 
L 986.19798 179.57616 
L 946.117172 179.57616 
z
" style="fill:#add8e6;"/>
   </g>
   <g id="patch_43">
    <path clip-path="url(#pfd66995547)" d="M 214.642424 640.8 
L 234.682828 640.8 
L 234.682828 640.78152 
L 214.642424 640.78152 
z
" style="fill:#ff0000;"/>
   </g>
   <g id="patch_44">
    <path clip-path="url(#pfd66995547)" d="M 254.723232 640.8 
L 274.763636 640.8 
L 274.763636 640.78152 
L 254.723232 640.78152 
z
" style="fill:#ff0000;"/>
   </g>
   <g id="patch_45">
    <path clip-path="url(#pfd66995547)" d="M 294.80404 640.8 
L 314.844444 640.8 
L 314.844444 640.78152 
L 294.80404 640.78152 
z
" style="fill:#ff0000;"/>
   </g>
   <g id="patch_46">
    <path clip-path="url(#pfd66995547)" d="M 334.884848 640.8 
L 354.925253 640.8 
L 354.925253 640.78152 
L 334.884848 640.78152 
z
" style="fill:#ff0000;"/>
   </g>
   <g id="patch_47">
    <path clip-path="url(#pfd66995547)" d="M 374.965657 640.8 
L 395.006061 640.8 
L 395.006061 640.78152 
L 374.965657 640.78152 
z
" style="fill:#ff0000;"/>
   </g>
   <g id="patch_48">
    <path clip-path="url(#pfd66995547)" d="M 415.046465 640.8 
L 435.086869 640.8 
L 435.086869 640.76304 
L 415.046465 640.76304 
z
" style="fill:#ff0000;"/>
   </g>
   <g id="patch_49">
    <path clip-path="url(#pfd66995547)" d="M 455.127273 640.8 
L 475.167677 640.8 
L 475.167677 640.76304 
L 455.127273 640.76304 
z
" style="fill:#ff0000;"/>
   </g>
   <g id="patch_50">
    <path clip-path="url(#pfd66995547)" d="M 495.208081 640.8 
L 515.248485 640.8 
L 515.248485 640.74456 
L 495.208081 640.74456 
z
" style="fill:#ff0000;"/>
   </g>
   <g id="patch_51">
    <path clip-path="url(#pfd66995547)" d="M 535.288889 640.8 
L 555.329293 640.8 
L 555.329293 640.72608 
L 535.288889 640.72608 
z
" style="fill:#ff0000;"/>
   </g>
   <g id="patch_52">
    <path clip-path="url(#pfd66995547)" d="M 575.369697 640.8 
L 595.410101 640.8 
L 595.410101 640.68912 
L 575.369697 640.68912 
z
" style="fill:#ff0000;"/>
   </g>
   <g id="patch_53">
    <path clip-path="url(#pfd66995547)" d="M 615.450505 640.8 
L 635.490909 640.8 
L 635.490909 640.63368 
L 615.450505 640.63368 
z
" style="fill:#ff0000;"/>
   </g>
   <g id="patch_54">
    <path clip-path="url(#pfd66995547)" d="M 655.531313 640.8 
L 675.571717 640.8 
L 675.571717 640.48584 
L 655.531313 640.48584 
z
" style="fill:#ff0000;"/>
   </g>
   <g id="patch_55">
    <path clip-path="url(#pfd66995547)" d="M 695.612121 640.8 
L 715.652525 640.8 
L 715.652525 640.338 
L 695.612121 640.338 
z
" style="fill:#ff0000;"/>
   </g>
   <g id="patch_56">
    <path clip-path="url(#pfd66995547)" d="M 735.692929 640.8 
L 755.733333 640.8 
L 755.733333 640.04232 
L 735.692929 640.04232 
z
" style="fill:#ff0000;"/>
   </g>
   <g id="patch_57">
    <path clip-path="url(#pfd66995547)" d="M 775.773737 640.8 
L 795.814141 640.8 
L 795.814141 639.76512 
L 775.773737 639.76512 
z
" style="fill:#ff0000;"/>
   </g>
   <g id="patch_58">
    <path clip-path="url(#pfd66995547)" d="M 815.854545 640.8 
L 835.894949 640.8 
L 835.894949 639.3216 
L 815.854545 639.3216 
z
" style="fill:#ff0000;"/>
   </g>
   <g id="patch_59">
    <path clip-path="url(#pfd66995547)" d="M 855.935354 640.8 
L 875.975758 640.8 
L 875.975758 638.84112 
L 855.935354 638.84112 
z
" style="fill:#ff0000;"/>
   </g>
   <g id="patch_60">
    <path clip-path="url(#pfd66995547)" d="M 896.016162 640.8 
L 916.056566 640.8 
L 916.056566 638.36064 
L 896.016162 638.36064 
z
" style="fill:#ff0000;"/>
   </g>
   <g id="patch_61">
    <path clip-path="url(#pfd66995547)" d="M 936.09697 640.8 
L 956.137374 640.8 
L 956.137374 637.6584 
L 936.09697 637.6584 
z
" style="fill:#ff0000;"/>
   </g>
   <g id="patch_62">
    <path clip-path="url(#pfd66995547)" d="M 976.177778 640.8 
L 996.218182 640.8 
L 996.218182 636.86376 
L 976.177778 636.86376 
z
" style="fill:#ff0000;"/>
   </g>
   <g id="patch_63">
    <path clip-path="url(#pfd66995547)" d="M 214.642424 640.78152 
L 234.682828 640.78152 
L 234.682828 640.74456 
L 214.642424 640.74456 
z
" style="fill:#008000;"/>
   </g>
   <g id="patch_64">
    <path clip-path="url(#pfd66995547)" d="M 254.723232 640.78152 
L 274.763636 640.78152 
L 274.763636 640.67064 
L 254.723232 640.67064 
z
" style="fill:#008000;"/>
   </g>
   <g id="patch_65">
    <path clip-path="url(#pfd66995547)" d="M 294.80404 640.78152 
L 314.844444 640.78152 
L 314.844444 640.65216 
L 294.80404 640.65216 
z
" style="fill:#008000;"/>
   </g>
   <g id="patch_66">
    <path clip-path="url(#pfd66995547)" d="M 334.884848 640.78152 
L 354.925253 640.78152 
L 354.925253 640.65216 
L 334.884848 640.65216 
z
" style="fill:#008000;"/>
   </g>
   <g id="patch_67">
    <path clip-path="url(#pfd66995547)" d="M 374.965657 640.78152 
L 395.006061 640.78152 
L 395.006061 640.65216 
L 374.965657 640.65216 
z
" style="fill:#008000;"/>
   </g>
   <g id="patch_68">
    <path clip-path="url(#pfd66995547)" d="M 415.046465 640.76304 
L 435.086869 640.76304 
L 435.086869 640.63368 
L 415.046465 640.63368 
z
" style="fill:#008000;"/>
   </g>
   <g id="patch_69">
    <path clip-path="url(#pfd66995547)" d="M 455.127273 640.76304 
L 475.167677 640.76304 
L 475.167677 640.41192 
L 455.127273 640.41192 
z
" style="fill:#008000;"/>
   </g>
   <g id="patch_70">
    <path clip-path="url(#pfd66995547)" d="M 495.208081 640.74456 
L 515.248485 640.74456 
L 515.248485 640.30104 
L 495.208081 640.30104 
z
" style="fill:#008000;"/>
   </g>
   <g id="patch_71">
    <path clip-path="url(#pfd66995547)" d="M 535.288889 640.72608 
L 555.329293 640.72608 
L 555.329293 640.26408 
L 535.288889 640.26408 
z
" style="fill:#008000;"/>
   </g>
   <g id="patch_72">
    <path clip-path="url(#pfd66995547)" d="M 575.369697 640.68912 
L 595.410101 640.68912 
L 595.410101 640.22712 
L 575.369697 640.22712 
z
" style="fill:#008000;"/>
   </g>
   <g id="patch_73">
    <path clip-path="url(#pfd66995547)" d="M 615.450505 640.63368 
L 635.490909 640.63368 
L 635.490909 640.17168 
L 615.450505 640.17168 
z
" style="fill:#008000;"/>
   </g>
   <g id="patch_74">
    <path clip-path="url(#pfd66995547)" d="M 655.531313 640.48584 
L 675.571717 640.48584 
L 675.571717 639.93144 
L 655.531313 639.93144 
z
" style="fill:#008000;"/>
   </g>
   <g id="patch_75">
    <path clip-path="url(#pfd66995547)" d="M 695.612121 640.338 
L 715.652525 640.338 
L 715.652525 639.70968 
L 695.612121 639.70968 
z
" style="fill:#008000;"/>
   </g>
   <g id="patch_76">
    <path clip-path="url(#pfd66995547)" d="M 735.692929 640.04232 
L 755.733333 640.04232 
L 755.733333 639.34008 
L 735.692929 639.34008 
z
" style="fill:#008000;"/>
   </g>
   <g id="patch_77">
    <path clip-path="url(#pfd66995547)" d="M 775.773737 639.76512 
L 795.814141 639.76512 
L 795.814141 638.8596 
L 775.773737 638.8596 
z
" style="fill:#008000;"/>
   </g>
   <g id="patch_78">
    <path clip-path="url(#pfd66995547)" d="M 815.854545 639.3216 
L 835.894949 639.3216 
L 835.894949 638.37912 
L 815.854545 638.37912 
z
" style="fill:#008000;"/>
   </g>
   <g id="patch_79">
    <path clip-path="url(#pfd66995547)" d="M 855.935354 638.84112 
L 875.975758 638.84112 
L 875.975758 637.73232 
L 855.935354 637.73232 
z
" style="fill:#008000;"/>
   </g>
   <g id="patch_80">
    <path clip-path="url(#pfd66995547)" d="M 896.016162 638.36064 
L 916.056566 638.36064 
L 916.056566 636.4572 
L 896.016162 636.4572 
z
" style="fill:#008000;"/>
   </g>
   <g id="patch_81">
    <path clip-path="url(#pfd66995547)" d="M 936.09697 637.6584 
L 956.137374 637.6584 
L 956.137374 635.36688 
L 936.09697 635.36688 
z
" style="fill:#008000;"/>
   </g>
   <g id="patch_82">
    <path clip-path="url(#pfd66995547)" d="M 976.177778 636.86376 
L 996.218182 636.86376 
L 996.218182 633.70368 
L 976.177778 633.70368 
z
" style="fill:#008000;"/>
   </g>
   <g id="patch_83">
    <path clip-path="url(#pfd66995547)" d="M 214.642424 640.74456 
L 234.682828 640.74456 
L 234.682828 640.04232 
L 214.642424 640.04232 
z
" style="fill:#ff7f50;"/>
   </g>
   <g id="patch_84">
    <path clip-path="url(#pfd66995547)" d="M 254.723232 640.67064 
L 274.763636 640.67064 
L 274.763636 640.04232 
L 254.723232 640.04232 
z
" style="fill:#ff7f50;"/>
   </g>
   <g id="patch_85">
    <path clip-path="url(#pfd66995547)" d="M 294.80404 640.65216 
L 314.844444 640.65216 
L 314.844444 640.04232 
L 294.80404 640.04232 
z
" style="fill:#ff7f50;"/>
   </g>
   <g id="patch_86">
    <path clip-path="url(#pfd66995547)" d="M 334.884848 640.65216 
L 354.925253 640.65216 
L 354.925253 640.04232 
L 334.884848 640.04232 
z
" style="fill:#ff7f50;"/>
   </g>
   <g id="patch_87">
    <path clip-path="url(#pfd66995547)" d="M 374.965657 640.65216 
L 395.006061 640.65216 
L 395.006061 640.04232 
L 374.965657 640.04232 
z
" style="fill:#ff7f50;"/>
   </g>
   <g id="patch_88">
    <path clip-path="url(#pfd66995547)" d="M 415.046465 640.63368 
L 435.086869 640.63368 
L 435.086869 639.9684 
L 415.046465 639.9684 
z
" style="fill:#ff7f50;"/>
   </g>
   <g id="patch_89">
    <path clip-path="url(#pfd66995547)" d="M 455.127273 640.41192 
L 475.167677 640.41192 
L 475.167677 639.65424 
L 455.127273 639.65424 
z
" style="fill:#ff7f50;"/>
   </g>
   <g id="patch_90">
    <path clip-path="url(#pfd66995547)" d="M 495.208081 640.30104 
L 515.248485 640.30104 
L 515.248485 638.56392 
L 495.208081 638.56392 
z
" style="fill:#ff7f50;"/>
   </g>
   <g id="patch_91">
    <path clip-path="url(#pfd66995547)" d="M 535.288889 640.26408 
L 555.329293 640.26408 
L 555.329293 637.14096 
L 535.288889 637.14096 
z
" style="fill:#ff7f50;"/>
   </g>
   <g id="patch_92">
    <path clip-path="url(#pfd66995547)" d="M 575.369697 640.22712 
L 595.410101 640.22712 
L 595.410101 636.03216 
L 575.369697 636.03216 
z
" style="fill:#ff7f50;"/>
   </g>
   <g id="patch_93">
    <path clip-path="url(#pfd66995547)" d="M 615.450505 640.17168 
L 635.490909 640.17168 
L 635.490909 632.6688 
L 615.450505 632.6688 
z
" style="fill:#ff7f50;"/>
   </g>
   <g id="patch_94">
    <path clip-path="url(#pfd66995547)" d="M 655.531313 639.93144 
L 675.571717 639.93144 
L 675.571717 630.24792 
L 655.531313 630.24792 
z
" style="fill:#ff7f50;"/>
   </g>
   <g id="patch_95">
    <path clip-path="url(#pfd66995547)" d="M 695.612121 639.70968 
L 715.652525 639.70968 
L 715.652525 625.4616 
L 695.612121 625.4616 
z
" style="fill:#ff7f50;"/>
   </g>
   <g id="patch_96">
    <path clip-path="url(#pfd66995547)" d="M 735.692929 639.34008 
L 755.733333 639.34008 
L 755.733333 617.01624 
L 735.692929 617.01624 
z
" style="fill:#ff7f50;"/>
   </g>
   <g id="patch_97">
    <path clip-path="url(#pfd66995547)" d="M 775.773737 638.8596 
L 795.814141 638.8596 
L 795.814141 604.302 
L 775.773737 604.302 
z
" style="fill:#ff7f50;"/>
   </g>
   <g id="patch_98">
    <path clip-path="url(#pfd66995547)" d="M 815.854545 638.37912 
L 835.894949 638.37912 
L 835.894949 590.09088 
L 815.854545 590.09088 
z
" style="fill:#ff7f50;"/>
   </g>
   <g id="patch_99">
    <path clip-path="url(#pfd66995547)" d="M 855.935354 637.73232 
L 875.975758 637.73232 
L 875.975758 557.3628 
L 855.935354 557.3628 
z
" style="fill:#ff7f50;"/>
   </g>
   <g id="patch_100">
    <path clip-path="url(#pfd66995547)" d="M 896.016162 636.4572 
L 916.056566 636.4572 
L 916.056566 530.40048 
L 896.016162 530.40048 
z
" style="fill:#ff7f50;"/>
   </g>
   <g id="patch_101">
    <path clip-path="url(#pfd66995547)" d="M 936.09697 635.36688 
L 956.137374 635.36688 
L 956.137374 497.83872 
L 936.09697 497.83872 
z
" style="fill:#ff7f50;"/>
   </g>
   <g id="patch_102">
    <path clip-path="url(#pfd66995547)" d="M 976.177778 633.70368 
L 996.218182 633.70368 
L 996.218182 461.1744 
L 976.177778 461.1744 
z
" style="fill:#ff7f50;"/>
   </g>
   <g id="matplotlib.axis_1">
    <g id="xtick_1">
     <g id="line2d_1">
      <path clip-path="url(#pfd66995547)" d="M 204.622222 640.8 
L 204.622222 86.4 
" style="fill:none;stroke:#b0b0b0;stroke-linecap:square;stroke-opacity:0.5;stroke-width:0.8;"/>
     </g>
     <g id="line2d_2">
      <defs>
       <path d="M 0 0 
L 0 3.5 
" id="m7491288469" style="stroke:#000000;stroke-width:0.8;"/>
      </defs>
      <g>
       <use style="stroke:#000000;stroke-width:0.8;" x="204.622222" xlink:href="#m7491288469" y="640.8"/>
      </g>
     </g>
     <g id="text_1">
      <!-- 01.11 -->
      <defs>
       <path d="M 31.78125 66.40625 
Q 24.171875 66.40625 20.328125 58.90625 
Q 16.5 51.421875 16.5 36.375 
Q 16.5 21.390625 20.328125 13.890625 
Q 24.171875 6.390625 31.78125 6.390625 
Q 39.453125 6.390625 43.28125 13.890625 
Q 47.125 21.390625 47.125 36.375 
Q 47.125 51.421875 43.28125 58.90625 
Q 39.453125 66.40625 31.78125 66.40625 
z
M 31.78125 74.21875 
Q 44.046875 74.21875 50.515625 64.515625 
Q 56.984375 54.828125 56.984375 36.375 
Q 56.984375 17.96875 50.515625 8.265625 
Q 44.046875 -1.421875 31.78125 -1.421875 
Q 19.53125 -1.421875 13.0625 8.265625 
Q 6.59375 17.96875 6.59375 36.375 
Q 6.59375 54.828125 13.0625 64.515625 
Q 19.53125 74.21875 31.78125 74.21875 
z
" id="DejaVuSans-48"/>
       <path d="M 12.40625 8.296875 
L 28.515625 8.296875 
L 28.515625 63.921875 
L 10.984375 60.40625 
L 10.984375 69.390625 
L 28.421875 72.90625 
L 38.28125 72.90625 
L 38.28125 8.296875 
L 54.390625 8.296875 
L 54.390625 0 
L 12.40625 0 
z
" id="DejaVuSans-49"/>
       <path d="M 10.6875 12.40625 
L 21 12.40625 
L 21 0 
L 10.6875 0 
z
" id="DejaVuSans-46"/>
      </defs>
      <g transform="translate(201.862847 647.8)rotate(-270)scale(0.1 -0.1)">
       <use xlink:href="#DejaVuSans-48"/>
       <use x="63.623047" xlink:href="#DejaVuSans-49"/>
       <use x="127.246094" xlink:href="#DejaVuSans-46"/>
       <use x="159.033203" xlink:href="#DejaVuSans-49"/>
       <use x="222.65625" xlink:href="#DejaVuSans-49"/>
      </g>
     </g>
    </g>
    <g id="xtick_2">
     <g id="line2d_3">
      <path clip-path="url(#pfd66995547)" d="M 244.70303 640.8 
L 244.70303 86.4 
" style="fill:none;stroke:#b0b0b0;stroke-linecap:square;stroke-opacity:0.5;stroke-width:0.8;"/>
     </g>
     <g id="line2d_4">
      <g>
       <use style="stroke:#000000;stroke-width:0.8;" x="244.70303" xlink:href="#m7491288469" y="640.8"/>
      </g>
     </g>
     <g id="text_2">
      <!-- 01.12 -->
      <defs>
       <path d="M 19.1875 8.296875 
L 53.609375 8.296875 
L 53.609375 0 
L 7.328125 0 
L 7.328125 8.296875 
Q 12.9375 14.109375 22.625 23.890625 
Q 32.328125 33.6875 34.8125 36.53125 
Q 39.546875 41.84375 41.421875 45.53125 
Q 43.3125 49.21875 43.3125 52.78125 
Q 43.3125 58.59375 39.234375 62.25 
Q 35.15625 65.921875 28.609375 65.921875 
Q 23.96875 65.921875 18.8125 64.3125 
Q 13.671875 62.703125 7.8125 59.421875 
L 7.8125 69.390625 
Q 13.765625 71.78125 18.9375 73 
Q 24.125 74.21875 28.421875 74.21875 
Q 39.75 74.21875 46.484375 68.546875 
Q 53.21875 62.890625 53.21875 53.421875 
Q 53.21875 48.921875 51.53125 44.890625 
Q 49.859375 40.875 45.40625 35.40625 
Q 44.1875 33.984375 37.640625 27.21875 
Q 31.109375 20.453125 19.1875 8.296875 
z
" id="DejaVuSans-50"/>
      </defs>
      <g transform="translate(241.943655 647.8)rotate(-270)scale(0.1 -0.1)">
       <use xlink:href="#DejaVuSans-48"/>
       <use x="63.623047" xlink:href="#DejaVuSans-49"/>
       <use x="127.246094" xlink:href="#DejaVuSans-46"/>
       <use x="159.033203" xlink:href="#DejaVuSans-49"/>
       <use x="222.65625" xlink:href="#DejaVuSans-50"/>
      </g>
     </g>
    </g>
    <g id="xtick_3">
     <g id="line2d_5">
      <path clip-path="url(#pfd66995547)" d="M 284.783838 640.8 
L 284.783838 86.4 
" style="fill:none;stroke:#b0b0b0;stroke-linecap:square;stroke-opacity:0.5;stroke-width:0.8;"/>
     </g>
     <g id="line2d_6">
      <g>
       <use style="stroke:#000000;stroke-width:0.8;" x="284.783838" xlink:href="#m7491288469" y="640.8"/>
      </g>
     </g>
     <g id="text_3">
      <!-- 01.13 -->
      <defs>
       <path d="M 40.578125 39.3125 
Q 47.65625 37.796875 51.625 33 
Q 55.609375 28.21875 55.609375 21.1875 
Q 55.609375 10.40625 48.1875 4.484375 
Q 40.765625 -1.421875 27.09375 -1.421875 
Q 22.515625 -1.421875 17.65625 -0.515625 
Q 12.796875 0.390625 7.625 2.203125 
L 7.625 11.71875 
Q 11.71875 9.328125 16.59375 8.109375 
Q 21.484375 6.890625 26.8125 6.890625 
Q 36.078125 6.890625 40.9375 10.546875 
Q 45.796875 14.203125 45.796875 21.1875 
Q 45.796875 27.640625 41.28125 31.265625 
Q 36.765625 34.90625 28.71875 34.90625 
L 20.21875 34.90625 
L 20.21875 43.015625 
L 29.109375 43.015625 
Q 36.375 43.015625 40.234375 45.921875 
Q 44.09375 48.828125 44.09375 54.296875 
Q 44.09375 59.90625 40.109375 62.90625 
Q 36.140625 65.921875 28.71875 65.921875 
Q 24.65625 65.921875 20.015625 65.03125 
Q 15.375 64.15625 9.8125 62.3125 
L 9.8125 71.09375 
Q 15.4375 72.65625 20.34375 73.4375 
Q 25.25 74.21875 29.59375 74.21875 
Q 40.828125 74.21875 47.359375 69.109375 
Q 53.90625 64.015625 53.90625 55.328125 
Q 53.90625 49.265625 50.4375 45.09375 
Q 46.96875 40.921875 40.578125 39.3125 
z
" id="DejaVuSans-51"/>
      </defs>
      <g transform="translate(282.024463 647.8)rotate(-270)scale(0.1 -0.1)">
       <use xlink:href="#DejaVuSans-48"/>
       <use x="63.623047" xlink:href="#DejaVuSans-49"/>
       <use x="127.246094" xlink:href="#DejaVuSans-46"/>
       <use x="159.033203" xlink:href="#DejaVuSans-49"/>
       <use x="222.65625" xlink:href="#DejaVuSans-51"/>
      </g>
     </g>
    </g>
    <g id="xtick_4">
     <g id="line2d_7">
      <path clip-path="url(#pfd66995547)" d="M 324.864646 640.8 
L 324.864646 86.4 
" style="fill:none;stroke:#b0b0b0;stroke-linecap:square;stroke-opacity:0.5;stroke-width:0.8;"/>
     </g>
     <g id="line2d_8">
      <g>
       <use style="stroke:#000000;stroke-width:0.8;" x="324.864646" xlink:href="#m7491288469" y="640.8"/>
      </g>
     </g>
     <g id="text_4">
      <!-- 01.14 -->
      <defs>
       <path d="M 37.796875 64.3125 
L 12.890625 25.390625 
L 37.796875 25.390625 
z
M 35.203125 72.90625 
L 47.609375 72.90625 
L 47.609375 25.390625 
L 58.015625 25.390625 
L 58.015625 17.1875 
L 47.609375 17.1875 
L 47.609375 0 
L 37.796875 0 
L 37.796875 17.1875 
L 4.890625 17.1875 
L 4.890625 26.703125 
z
" id="DejaVuSans-52"/>
      </defs>
      <g transform="translate(322.105271 647.8)rotate(-270)scale(0.1 -0.1)">
       <use xlink:href="#DejaVuSans-48"/>
       <use x="63.623047" xlink:href="#DejaVuSans-49"/>
       <use x="127.246094" xlink:href="#DejaVuSans-46"/>
       <use x="159.033203" xlink:href="#DejaVuSans-49"/>
       <use x="222.65625" xlink:href="#DejaVuSans-52"/>
      </g>
     </g>
    </g>
    <g id="xtick_5">
     <g id="line2d_9">
      <path clip-path="url(#pfd66995547)" d="M 364.945455 640.8 
L 364.945455 86.4 
" style="fill:none;stroke:#b0b0b0;stroke-linecap:square;stroke-opacity:0.5;stroke-width:0.8;"/>
     </g>
     <g id="line2d_10">
      <g>
       <use style="stroke:#000000;stroke-width:0.8;" x="364.945455" xlink:href="#m7491288469" y="640.8"/>
      </g>
     </g>
     <g id="text_5">
      <!-- 01.15 -->
      <defs>
       <path d="M 10.796875 72.90625 
L 49.515625 72.90625 
L 49.515625 64.59375 
L 19.828125 64.59375 
L 19.828125 46.734375 
Q 21.96875 47.46875 24.109375 47.828125 
Q 26.265625 48.1875 28.421875 48.1875 
Q 40.625 48.1875 47.75 41.5 
Q 54.890625 34.8125 54.890625 23.390625 
Q 54.890625 11.625 47.5625 5.09375 
Q 40.234375 -1.421875 26.90625 -1.421875 
Q 22.3125 -1.421875 17.546875 -0.640625 
Q 12.796875 0.140625 7.71875 1.703125 
L 7.71875 11.625 
Q 12.109375 9.234375 16.796875 8.0625 
Q 21.484375 6.890625 26.703125 6.890625 
Q 35.15625 6.890625 40.078125 11.328125 
Q 45.015625 15.765625 45.015625 23.390625 
Q 45.015625 31 40.078125 35.4375 
Q 35.15625 39.890625 26.703125 39.890625 
Q 22.75 39.890625 18.8125 39.015625 
Q 14.890625 38.140625 10.796875 36.28125 
z
" id="DejaVuSans-53"/>
      </defs>
      <g transform="translate(362.18608 647.8)rotate(-270)scale(0.1 -0.1)">
       <use xlink:href="#DejaVuSans-48"/>
       <use x="63.623047" xlink:href="#DejaVuSans-49"/>
       <use x="127.246094" xlink:href="#DejaVuSans-46"/>
       <use x="159.033203" xlink:href="#DejaVuSans-49"/>
       <use x="222.65625" xlink:href="#DejaVuSans-53"/>
      </g>
     </g>
    </g>
    <g id="xtick_6">
     <g id="line2d_11">
      <path clip-path="url(#pfd66995547)" d="M 405.026263 640.8 
L 405.026263 86.4 
" style="fill:none;stroke:#b0b0b0;stroke-linecap:square;stroke-opacity:0.5;stroke-width:0.8;"/>
     </g>
     <g id="line2d_12">
      <g>
       <use style="stroke:#000000;stroke-width:0.8;" x="405.026263" xlink:href="#m7491288469" y="640.8"/>
      </g>
     </g>
     <g id="text_6">
      <!-- 01.16 -->
      <defs>
       <path d="M 33.015625 40.375 
Q 26.375 40.375 22.484375 35.828125 
Q 18.609375 31.296875 18.609375 23.390625 
Q 18.609375 15.53125 22.484375 10.953125 
Q 26.375 6.390625 33.015625 6.390625 
Q 39.65625 6.390625 43.53125 10.953125 
Q 47.40625 15.53125 47.40625 23.390625 
Q 47.40625 31.296875 43.53125 35.828125 
Q 39.65625 40.375 33.015625 40.375 
z
M 52.59375 71.296875 
L 52.59375 62.3125 
Q 48.875 64.0625 45.09375 64.984375 
Q 41.3125 65.921875 37.59375 65.921875 
Q 27.828125 65.921875 22.671875 59.328125 
Q 17.53125 52.734375 16.796875 39.40625 
Q 19.671875 43.65625 24.015625 45.921875 
Q 28.375 48.1875 33.59375 48.1875 
Q 44.578125 48.1875 50.953125 41.515625 
Q 57.328125 34.859375 57.328125 23.390625 
Q 57.328125 12.15625 50.6875 5.359375 
Q 44.046875 -1.421875 33.015625 -1.421875 
Q 20.359375 -1.421875 13.671875 8.265625 
Q 6.984375 17.96875 6.984375 36.375 
Q 6.984375 53.65625 15.1875 63.9375 
Q 23.390625 74.21875 37.203125 74.21875 
Q 40.921875 74.21875 44.703125 73.484375 
Q 48.484375 72.75 52.59375 71.296875 
z
" id="DejaVuSans-54"/>
      </defs>
      <g transform="translate(402.266888 647.8)rotate(-270)scale(0.1 -0.1)">
       <use xlink:href="#DejaVuSans-48"/>
       <use x="63.623047" xlink:href="#DejaVuSans-49"/>
       <use x="127.246094" xlink:href="#DejaVuSans-46"/>
       <use x="159.033203" xlink:href="#DejaVuSans-49"/>
       <use x="222.65625" xlink:href="#DejaVuSans-54"/>
      </g>
     </g>
    </g>
    <g id="xtick_7">
     <g id="line2d_13">
      <path clip-path="url(#pfd66995547)" d="M 445.107071 640.8 
L 445.107071 86.4 
" style="fill:none;stroke:#b0b0b0;stroke-linecap:square;stroke-opacity:0.5;stroke-width:0.8;"/>
     </g>
     <g id="line2d_14">
      <g>
       <use style="stroke:#000000;stroke-width:0.8;" x="445.107071" xlink:href="#m7491288469" y="640.8"/>
      </g>
     </g>
     <g id="text_7">
      <!-- 01.17 -->
      <defs>
       <path d="M 8.203125 72.90625 
L 55.078125 72.90625 
L 55.078125 68.703125 
L 28.609375 0 
L 18.3125 0 
L 43.21875 64.59375 
L 8.203125 64.59375 
z
" id="DejaVuSans-55"/>
      </defs>
      <g transform="translate(442.347696 647.8)rotate(-270)scale(0.1 -0.1)">
       <use xlink:href="#DejaVuSans-48"/>
       <use x="63.623047" xlink:href="#DejaVuSans-49"/>
       <use x="127.246094" xlink:href="#DejaVuSans-46"/>
       <use x="159.033203" xlink:href="#DejaVuSans-49"/>
       <use x="222.65625" xlink:href="#DejaVuSans-55"/>
      </g>
     </g>
    </g>
    <g id="xtick_8">
     <g id="line2d_15">
      <path clip-path="url(#pfd66995547)" d="M 485.187879 640.8 
L 485.187879 86.4 
" style="fill:none;stroke:#b0b0b0;stroke-linecap:square;stroke-opacity:0.5;stroke-width:0.8;"/>
     </g>
     <g id="line2d_16">
      <g>
       <use style="stroke:#000000;stroke-width:0.8;" x="485.187879" xlink:href="#m7491288469" y="640.8"/>
      </g>
     </g>
     <g id="text_8">
      <!-- 01.18 -->
      <defs>
       <path d="M 31.78125 34.625 
Q 24.75 34.625 20.71875 30.859375 
Q 16.703125 27.09375 16.703125 20.515625 
Q 16.703125 13.921875 20.71875 10.15625 
Q 24.75 6.390625 31.78125 6.390625 
Q 38.8125 6.390625 42.859375 10.171875 
Q 46.921875 13.96875 46.921875 20.515625 
Q 46.921875 27.09375 42.890625 30.859375 
Q 38.875 34.625 31.78125 34.625 
z
M 21.921875 38.8125 
Q 15.578125 40.375 12.03125 44.71875 
Q 8.5 49.078125 8.5 55.328125 
Q 8.5 64.0625 14.71875 69.140625 
Q 20.953125 74.21875 31.78125 74.21875 
Q 42.671875 74.21875 48.875 69.140625 
Q 55.078125 64.0625 55.078125 55.328125 
Q 55.078125 49.078125 51.53125 44.71875 
Q 48 40.375 41.703125 38.8125 
Q 48.828125 37.15625 52.796875 32.3125 
Q 56.78125 27.484375 56.78125 20.515625 
Q 56.78125 9.90625 50.3125 4.234375 
Q 43.84375 -1.421875 31.78125 -1.421875 
Q 19.734375 -1.421875 13.25 4.234375 
Q 6.78125 9.90625 6.78125 20.515625 
Q 6.78125 27.484375 10.78125 32.3125 
Q 14.796875 37.15625 21.921875 38.8125 
z
M 18.3125 54.390625 
Q 18.3125 48.734375 21.84375 45.5625 
Q 25.390625 42.390625 31.78125 42.390625 
Q 38.140625 42.390625 41.71875 45.5625 
Q 45.3125 48.734375 45.3125 54.390625 
Q 45.3125 60.0625 41.71875 63.234375 
Q 38.140625 66.40625 31.78125 66.40625 
Q 25.390625 66.40625 21.84375 63.234375 
Q 18.3125 60.0625 18.3125 54.390625 
z
" id="DejaVuSans-56"/>
      </defs>
      <g transform="translate(482.428504 647.8)rotate(-270)scale(0.1 -0.1)">
       <use xlink:href="#DejaVuSans-48"/>
       <use x="63.623047" xlink:href="#DejaVuSans-49"/>
       <use x="127.246094" xlink:href="#DejaVuSans-46"/>
       <use x="159.033203" xlink:href="#DejaVuSans-49"/>
       <use x="222.65625" xlink:href="#DejaVuSans-56"/>
      </g>
     </g>
    </g>
    <g id="xtick_9">
     <g id="line2d_17">
      <path clip-path="url(#pfd66995547)" d="M 525.268687 640.8 
L 525.268687 86.4 
" style="fill:none;stroke:#b0b0b0;stroke-linecap:square;stroke-opacity:0.5;stroke-width:0.8;"/>
     </g>
     <g id="line2d_18">
      <g>
       <use style="stroke:#000000;stroke-width:0.8;" x="525.268687" xlink:href="#m7491288469" y="640.8"/>
      </g>
     </g>
     <g id="text_9">
      <!-- 01.19 -->
      <defs>
       <path d="M 10.984375 1.515625 
L 10.984375 10.5 
Q 14.703125 8.734375 18.5 7.8125 
Q 22.3125 6.890625 25.984375 6.890625 
Q 35.75 6.890625 40.890625 13.453125 
Q 46.046875 20.015625 46.78125 33.40625 
Q 43.953125 29.203125 39.59375 26.953125 
Q 35.25 24.703125 29.984375 24.703125 
Q 19.046875 24.703125 12.671875 31.3125 
Q 6.296875 37.9375 6.296875 49.421875 
Q 6.296875 60.640625 12.9375 67.421875 
Q 19.578125 74.21875 30.609375 74.21875 
Q 43.265625 74.21875 49.921875 64.515625 
Q 56.59375 54.828125 56.59375 36.375 
Q 56.59375 19.140625 48.40625 8.859375 
Q 40.234375 -1.421875 26.421875 -1.421875 
Q 22.703125 -1.421875 18.890625 -0.6875 
Q 15.09375 0.046875 10.984375 1.515625 
z
M 30.609375 32.421875 
Q 37.25 32.421875 41.125 36.953125 
Q 45.015625 41.5 45.015625 49.421875 
Q 45.015625 57.28125 41.125 61.84375 
Q 37.25 66.40625 30.609375 66.40625 
Q 23.96875 66.40625 20.09375 61.84375 
Q 16.21875 57.28125 16.21875 49.421875 
Q 16.21875 41.5 20.09375 36.953125 
Q 23.96875 32.421875 30.609375 32.421875 
z
" id="DejaVuSans-57"/>
      </defs>
      <g transform="translate(522.509312 647.8)rotate(-270)scale(0.1 -0.1)">
       <use xlink:href="#DejaVuSans-48"/>
       <use x="63.623047" xlink:href="#DejaVuSans-49"/>
       <use x="127.246094" xlink:href="#DejaVuSans-46"/>
       <use x="159.033203" xlink:href="#DejaVuSans-49"/>
       <use x="222.65625" xlink:href="#DejaVuSans-57"/>
      </g>
     </g>
    </g>
    <g id="xtick_10">
     <g id="line2d_19">
      <path clip-path="url(#pfd66995547)" d="M 565.349495 640.8 
L 565.349495 86.4 
" style="fill:none;stroke:#b0b0b0;stroke-linecap:square;stroke-opacity:0.5;stroke-width:0.8;"/>
     </g>
     <g id="line2d_20">
      <g>
       <use style="stroke:#000000;stroke-width:0.8;" x="565.349495" xlink:href="#m7491288469" y="640.8"/>
      </g>
     </g>
     <g id="text_10">
      <!-- 01.20 -->
      <g transform="translate(562.59012 647.8)rotate(-270)scale(0.1 -0.1)">
       <use xlink:href="#DejaVuSans-48"/>
       <use x="63.623047" xlink:href="#DejaVuSans-49"/>
       <use x="127.246094" xlink:href="#DejaVuSans-46"/>
       <use x="159.033203" xlink:href="#DejaVuSans-50"/>
       <use x="222.65625" xlink:href="#DejaVuSans-48"/>
      </g>
     </g>
    </g>
    <g id="xtick_11">
     <g id="line2d_21">
      <path clip-path="url(#pfd66995547)" d="M 605.430303 640.8 
L 605.430303 86.4 
" style="fill:none;stroke:#b0b0b0;stroke-linecap:square;stroke-opacity:0.5;stroke-width:0.8;"/>
     </g>
     <g id="line2d_22">
      <g>
       <use style="stroke:#000000;stroke-width:0.8;" x="605.430303" xlink:href="#m7491288469" y="640.8"/>
      </g>
     </g>
     <g id="text_11">
      <!-- 01.21 -->
      <g transform="translate(602.670928 647.8)rotate(-270)scale(0.1 -0.1)">
       <use xlink:href="#DejaVuSans-48"/>
       <use x="63.623047" xlink:href="#DejaVuSans-49"/>
       <use x="127.246094" xlink:href="#DejaVuSans-46"/>
       <use x="159.033203" xlink:href="#DejaVuSans-50"/>
       <use x="222.65625" xlink:href="#DejaVuSans-49"/>
      </g>
     </g>
    </g>
    <g id="xtick_12">
     <g id="line2d_23">
      <path clip-path="url(#pfd66995547)" d="M 645.511111 640.8 
L 645.511111 86.4 
" style="fill:none;stroke:#b0b0b0;stroke-linecap:square;stroke-opacity:0.5;stroke-width:0.8;"/>
     </g>
     <g id="line2d_24">
      <g>
       <use style="stroke:#000000;stroke-width:0.8;" x="645.511111" xlink:href="#m7491288469" y="640.8"/>
      </g>
     </g>
     <g id="text_12">
      <!-- 01.22 -->
      <g transform="translate(642.751736 647.8)rotate(-270)scale(0.1 -0.1)">
       <use xlink:href="#DejaVuSans-48"/>
       <use x="63.623047" xlink:href="#DejaVuSans-49"/>
       <use x="127.246094" xlink:href="#DejaVuSans-46"/>
       <use x="159.033203" xlink:href="#DejaVuSans-50"/>
       <use x="222.65625" xlink:href="#DejaVuSans-50"/>
      </g>
     </g>
    </g>
    <g id="xtick_13">
     <g id="line2d_25">
      <path clip-path="url(#pfd66995547)" d="M 685.591919 640.8 
L 685.591919 86.4 
" style="fill:none;stroke:#b0b0b0;stroke-linecap:square;stroke-opacity:0.5;stroke-width:0.8;"/>
     </g>
     <g id="line2d_26">
      <g>
       <use style="stroke:#000000;stroke-width:0.8;" x="685.591919" xlink:href="#m7491288469" y="640.8"/>
      </g>
     </g>
     <g id="text_13">
      <!-- 01.23 -->
      <g transform="translate(682.832544 647.8)rotate(-270)scale(0.1 -0.1)">
       <use xlink:href="#DejaVuSans-48"/>
       <use x="63.623047" xlink:href="#DejaVuSans-49"/>
       <use x="127.246094" xlink:href="#DejaVuSans-46"/>
       <use x="159.033203" xlink:href="#DejaVuSans-50"/>
       <use x="222.65625" xlink:href="#DejaVuSans-51"/>
      </g>
     </g>
    </g>
    <g id="xtick_14">
     <g id="line2d_27">
      <path clip-path="url(#pfd66995547)" d="M 725.672727 640.8 
L 725.672727 86.4 
" style="fill:none;stroke:#b0b0b0;stroke-linecap:square;stroke-opacity:0.5;stroke-width:0.8;"/>
     </g>
     <g id="line2d_28">
      <g>
       <use style="stroke:#000000;stroke-width:0.8;" x="725.672727" xlink:href="#m7491288469" y="640.8"/>
      </g>
     </g>
     <g id="text_14">
      <!-- 01.24 -->
      <g transform="translate(722.913352 647.8)rotate(-270)scale(0.1 -0.1)">
       <use xlink:href="#DejaVuSans-48"/>
       <use x="63.623047" xlink:href="#DejaVuSans-49"/>
       <use x="127.246094" xlink:href="#DejaVuSans-46"/>
       <use x="159.033203" xlink:href="#DejaVuSans-50"/>
       <use x="222.65625" xlink:href="#DejaVuSans-52"/>
      </g>
     </g>
    </g>
    <g id="xtick_15">
     <g id="line2d_29">
      <path clip-path="url(#pfd66995547)" d="M 765.753535 640.8 
L 765.753535 86.4 
" style="fill:none;stroke:#b0b0b0;stroke-linecap:square;stroke-opacity:0.5;stroke-width:0.8;"/>
     </g>
     <g id="line2d_30">
      <g>
       <use style="stroke:#000000;stroke-width:0.8;" x="765.753535" xlink:href="#m7491288469" y="640.8"/>
      </g>
     </g>
     <g id="text_15">
      <!-- 01.25 -->
      <g transform="translate(762.99416 647.8)rotate(-270)scale(0.1 -0.1)">
       <use xlink:href="#DejaVuSans-48"/>
       <use x="63.623047" xlink:href="#DejaVuSans-49"/>
       <use x="127.246094" xlink:href="#DejaVuSans-46"/>
       <use x="159.033203" xlink:href="#DejaVuSans-50"/>
       <use x="222.65625" xlink:href="#DejaVuSans-53"/>
      </g>
     </g>
    </g>
    <g id="xtick_16">
     <g id="line2d_31">
      <path clip-path="url(#pfd66995547)" d="M 805.834343 640.8 
L 805.834343 86.4 
" style="fill:none;stroke:#b0b0b0;stroke-linecap:square;stroke-opacity:0.5;stroke-width:0.8;"/>
     </g>
     <g id="line2d_32">
      <g>
       <use style="stroke:#000000;stroke-width:0.8;" x="805.834343" xlink:href="#m7491288469" y="640.8"/>
      </g>
     </g>
     <g id="text_16">
      <!-- 01.26 -->
      <g transform="translate(803.074968 647.8)rotate(-270)scale(0.1 -0.1)">
       <use xlink:href="#DejaVuSans-48"/>
       <use x="63.623047" xlink:href="#DejaVuSans-49"/>
       <use x="127.246094" xlink:href="#DejaVuSans-46"/>
       <use x="159.033203" xlink:href="#DejaVuSans-50"/>
       <use x="222.65625" xlink:href="#DejaVuSans-54"/>
      </g>
     </g>
    </g>
    <g id="xtick_17">
     <g id="line2d_33">
      <path clip-path="url(#pfd66995547)" d="M 845.915152 640.8 
L 845.915152 86.4 
" style="fill:none;stroke:#b0b0b0;stroke-linecap:square;stroke-opacity:0.5;stroke-width:0.8;"/>
     </g>
     <g id="line2d_34">
      <g>
       <use style="stroke:#000000;stroke-width:0.8;" x="845.915152" xlink:href="#m7491288469" y="640.8"/>
      </g>
     </g>
     <g id="text_17">
      <!-- 01.27 -->
      <g transform="translate(843.155777 647.8)rotate(-270)scale(0.1 -0.1)">
       <use xlink:href="#DejaVuSans-48"/>
       <use x="63.623047" xlink:href="#DejaVuSans-49"/>
       <use x="127.246094" xlink:href="#DejaVuSans-46"/>
       <use x="159.033203" xlink:href="#DejaVuSans-50"/>
       <use x="222.65625" xlink:href="#DejaVuSans-55"/>
      </g>
     </g>
    </g>
    <g id="xtick_18">
     <g id="line2d_35">
      <path clip-path="url(#pfd66995547)" d="M 885.99596 640.8 
L 885.99596 86.4 
" style="fill:none;stroke:#b0b0b0;stroke-linecap:square;stroke-opacity:0.5;stroke-width:0.8;"/>
     </g>
     <g id="line2d_36">
      <g>
       <use style="stroke:#000000;stroke-width:0.8;" x="885.99596" xlink:href="#m7491288469" y="640.8"/>
      </g>
     </g>
     <g id="text_18">
      <!-- 01.28 -->
      <g transform="translate(883.236585 647.8)rotate(-270)scale(0.1 -0.1)">
       <use xlink:href="#DejaVuSans-48"/>
       <use x="63.623047" xlink:href="#DejaVuSans-49"/>
       <use x="127.246094" xlink:href="#DejaVuSans-46"/>
       <use x="159.033203" xlink:href="#DejaVuSans-50"/>
       <use x="222.65625" xlink:href="#DejaVuSans-56"/>
      </g>
     </g>
    </g>
    <g id="xtick_19">
     <g id="line2d_37">
      <path clip-path="url(#pfd66995547)" d="M 926.076768 640.8 
L 926.076768 86.4 
" style="fill:none;stroke:#b0b0b0;stroke-linecap:square;stroke-opacity:0.5;stroke-width:0.8;"/>
     </g>
     <g id="line2d_38">
      <g>
       <use style="stroke:#000000;stroke-width:0.8;" x="926.076768" xlink:href="#m7491288469" y="640.8"/>
      </g>
     </g>
     <g id="text_19">
      <!-- 01.29 -->
      <g transform="translate(923.317393 647.8)rotate(-270)scale(0.1 -0.1)">
       <use xlink:href="#DejaVuSans-48"/>
       <use x="63.623047" xlink:href="#DejaVuSans-49"/>
       <use x="127.246094" xlink:href="#DejaVuSans-46"/>
       <use x="159.033203" xlink:href="#DejaVuSans-50"/>
       <use x="222.65625" xlink:href="#DejaVuSans-57"/>
      </g>
     </g>
    </g>
    <g id="xtick_20">
     <g id="line2d_39">
      <path clip-path="url(#pfd66995547)" d="M 966.157576 640.8 
L 966.157576 86.4 
" style="fill:none;stroke:#b0b0b0;stroke-linecap:square;stroke-opacity:0.5;stroke-width:0.8;"/>
     </g>
     <g id="line2d_40">
      <g>
       <use style="stroke:#000000;stroke-width:0.8;" x="966.157576" xlink:href="#m7491288469" y="640.8"/>
      </g>
     </g>
     <g id="text_20">
      <!-- 01.30 -->
      <g transform="translate(963.398201 647.8)rotate(-270)scale(0.1 -0.1)">
       <use xlink:href="#DejaVuSans-48"/>
       <use x="63.623047" xlink:href="#DejaVuSans-49"/>
       <use x="127.246094" xlink:href="#DejaVuSans-46"/>
       <use x="159.033203" xlink:href="#DejaVuSans-51"/>
       <use x="222.65625" xlink:href="#DejaVuSans-48"/>
      </g>
     </g>
    </g>
    <g id="text_21">
     <!-- Date -->
     <defs>
      <path d="M 19.671875 64.796875 
L 19.671875 8.109375 
L 31.59375 8.109375 
Q 46.6875 8.109375 53.6875 14.9375 
Q 60.6875 21.78125 60.6875 36.53125 
Q 60.6875 51.171875 53.6875 57.984375 
Q 46.6875 64.796875 31.59375 64.796875 
z
M 9.8125 72.90625 
L 30.078125 72.90625 
Q 51.265625 72.90625 61.171875 64.09375 
Q 71.09375 55.28125 71.09375 36.53125 
Q 71.09375 17.671875 61.125 8.828125 
Q 51.171875 0 30.078125 0 
L 9.8125 0 
z
" id="DejaVuSans-68"/>
      <path d="M 34.28125 27.484375 
Q 23.390625 27.484375 19.1875 25 
Q 14.984375 22.515625 14.984375 16.5 
Q 14.984375 11.71875 18.140625 8.90625 
Q 21.296875 6.109375 26.703125 6.109375 
Q 34.1875 6.109375 38.703125 11.40625 
Q 43.21875 16.703125 43.21875 25.484375 
L 43.21875 27.484375 
z
M 52.203125 31.203125 
L 52.203125 0 
L 43.21875 0 
L 43.21875 8.296875 
Q 40.140625 3.328125 35.546875 0.953125 
Q 30.953125 -1.421875 24.3125 -1.421875 
Q 15.921875 -1.421875 10.953125 3.296875 
Q 6 8.015625 6 15.921875 
Q 6 25.140625 12.171875 29.828125 
Q 18.359375 34.515625 30.609375 34.515625 
L 43.21875 34.515625 
L 43.21875 35.40625 
Q 43.21875 41.609375 39.140625 45 
Q 35.0625 48.390625 27.6875 48.390625 
Q 23 48.390625 18.546875 47.265625 
Q 14.109375 46.140625 10.015625 43.890625 
L 10.015625 52.203125 
Q 14.9375 54.109375 19.578125 55.046875 
Q 24.21875 56 28.609375 56 
Q 40.484375 56 46.34375 49.84375 
Q 52.203125 43.703125 52.203125 31.203125 
z
" id="DejaVuSans-97"/>
      <path d="M 18.3125 70.21875 
L 18.3125 54.6875 
L 36.8125 54.6875 
L 36.8125 47.703125 
L 18.3125 47.703125 
L 18.3125 18.015625 
Q 18.3125 11.328125 20.140625 9.421875 
Q 21.96875 7.515625 27.59375 7.515625 
L 36.8125 7.515625 
L 36.8125 0 
L 27.59375 0 
Q 17.1875 0 13.234375 3.875 
Q 9.28125 7.765625 9.28125 18.015625 
L 9.28125 47.703125 
L 2.6875 47.703125 
L 2.6875 54.6875 
L 9.28125 54.6875 
L 9.28125 70.21875 
z
" id="DejaVuSans-116"/>
      <path d="M 56.203125 29.59375 
L 56.203125 25.203125 
L 14.890625 25.203125 
Q 15.484375 15.921875 20.484375 11.0625 
Q 25.484375 6.203125 34.421875 6.203125 
Q 39.59375 6.203125 44.453125 7.46875 
Q 49.3125 8.734375 54.109375 11.28125 
L 54.109375 2.78125 
Q 49.265625 0.734375 44.1875 -0.34375 
Q 39.109375 -1.421875 33.890625 -1.421875 
Q 20.796875 -1.421875 13.15625 6.1875 
Q 5.515625 13.8125 5.515625 26.8125 
Q 5.515625 40.234375 12.765625 48.109375 
Q 20.015625 56 32.328125 56 
Q 43.359375 56 49.78125 48.890625 
Q 56.203125 41.796875 56.203125 29.59375 
z
M 47.21875 32.234375 
Q 47.125 39.59375 43.09375 43.984375 
Q 39.0625 48.390625 32.421875 48.390625 
Q 24.90625 48.390625 20.390625 44.140625 
Q 15.875 39.890625 15.1875 32.171875 
z
" id="DejaVuSans-101"/>
     </defs>
     <g transform="translate(578.449219 688.026563)scale(0.1 -0.1)">
      <use xlink:href="#DejaVuSans-68"/>
      <use x="77.001953" xlink:href="#DejaVuSans-97"/>
      <use x="138.28125" xlink:href="#DejaVuSans-116"/>
      <use x="177.490234" xlink:href="#DejaVuSans-101"/>
     </g>
    </g>
   </g>
   <g id="matplotlib.axis_2">
    <g id="ytick_1">
     <g id="line2d_41">
      <path clip-path="url(#pfd66995547)" d="M 144 640.8 
L 1036.8 640.8 
" style="fill:none;stroke:#b0b0b0;stroke-linecap:square;stroke-opacity:0.5;stroke-width:0.8;"/>
     </g>
     <g id="line2d_42">
      <defs>
       <path d="M 0 0 
L -3.5 0 
" id="mfc6326eeb3" style="stroke:#000000;stroke-width:0.8;"/>
      </defs>
      <g>
       <use style="stroke:#000000;stroke-width:0.8;" x="144" xlink:href="#mfc6326eeb3" y="640.8"/>
      </g>
     </g>
     <g id="text_22">
      <!-- 0 -->
      <g transform="translate(130.6375 644.599219)scale(0.1 -0.1)">
       <use xlink:href="#DejaVuSans-48"/>
      </g>
     </g>
    </g>
    <g id="ytick_2">
     <g id="line2d_43">
      <path clip-path="url(#pfd66995547)" d="M 144 548.4 
L 1036.8 548.4 
" style="fill:none;stroke:#b0b0b0;stroke-linecap:square;stroke-opacity:0.5;stroke-width:0.8;"/>
     </g>
     <g id="line2d_44">
      <g>
       <use style="stroke:#000000;stroke-width:0.8;" x="144" xlink:href="#mfc6326eeb3" y="548.4"/>
      </g>
     </g>
     <g id="text_23">
      <!-- 5000 -->
      <g transform="translate(111.55 552.199219)scale(0.1 -0.1)">
       <use xlink:href="#DejaVuSans-53"/>
       <use x="63.623047" xlink:href="#DejaVuSans-48"/>
       <use x="127.246094" xlink:href="#DejaVuSans-48"/>
       <use x="190.869141" xlink:href="#DejaVuSans-48"/>
      </g>
     </g>
    </g>
    <g id="ytick_3">
     <g id="line2d_45">
      <path clip-path="url(#pfd66995547)" d="M 144 456 
L 1036.8 456 
" style="fill:none;stroke:#b0b0b0;stroke-linecap:square;stroke-opacity:0.5;stroke-width:0.8;"/>
     </g>
     <g id="line2d_46">
      <g>
       <use style="stroke:#000000;stroke-width:0.8;" x="144" xlink:href="#mfc6326eeb3" y="456"/>
      </g>
     </g>
     <g id="text_24">
      <!-- 10000 -->
      <g transform="translate(105.1875 459.799219)scale(0.1 -0.1)">
       <use xlink:href="#DejaVuSans-49"/>
       <use x="63.623047" xlink:href="#DejaVuSans-48"/>
       <use x="127.246094" xlink:href="#DejaVuSans-48"/>
       <use x="190.869141" xlink:href="#DejaVuSans-48"/>
       <use x="254.492188" xlink:href="#DejaVuSans-48"/>
      </g>
     </g>
    </g>
    <g id="ytick_4">
     <g id="line2d_47">
      <path clip-path="url(#pfd66995547)" d="M 144 363.6 
L 1036.8 363.6 
" style="fill:none;stroke:#b0b0b0;stroke-linecap:square;stroke-opacity:0.5;stroke-width:0.8;"/>
     </g>
     <g id="line2d_48">
      <g>
       <use style="stroke:#000000;stroke-width:0.8;" x="144" xlink:href="#mfc6326eeb3" y="363.6"/>
      </g>
     </g>
     <g id="text_25">
      <!-- 15000 -->
      <g transform="translate(105.1875 367.399219)scale(0.1 -0.1)">
       <use xlink:href="#DejaVuSans-49"/>
       <use x="63.623047" xlink:href="#DejaVuSans-53"/>
       <use x="127.246094" xlink:href="#DejaVuSans-48"/>
       <use x="190.869141" xlink:href="#DejaVuSans-48"/>
       <use x="254.492188" xlink:href="#DejaVuSans-48"/>
      </g>
     </g>
    </g>
    <g id="ytick_5">
     <g id="line2d_49">
      <path clip-path="url(#pfd66995547)" d="M 144 271.2 
L 1036.8 271.2 
" style="fill:none;stroke:#b0b0b0;stroke-linecap:square;stroke-opacity:0.5;stroke-width:0.8;"/>
     </g>
     <g id="line2d_50">
      <g>
       <use style="stroke:#000000;stroke-width:0.8;" x="144" xlink:href="#mfc6326eeb3" y="271.2"/>
      </g>
     </g>
     <g id="text_26">
      <!-- 20000 -->
      <g transform="translate(105.1875 274.999219)scale(0.1 -0.1)">
       <use xlink:href="#DejaVuSans-50"/>
       <use x="63.623047" xlink:href="#DejaVuSans-48"/>
       <use x="127.246094" xlink:href="#DejaVuSans-48"/>
       <use x="190.869141" xlink:href="#DejaVuSans-48"/>
       <use x="254.492188" xlink:href="#DejaVuSans-48"/>
      </g>
     </g>
    </g>
    <g id="ytick_6">
     <g id="line2d_51">
      <path clip-path="url(#pfd66995547)" d="M 144 178.8 
L 1036.8 178.8 
" style="fill:none;stroke:#b0b0b0;stroke-linecap:square;stroke-opacity:0.5;stroke-width:0.8;"/>
     </g>
     <g id="line2d_52">
      <g>
       <use style="stroke:#000000;stroke-width:0.8;" x="144" xlink:href="#mfc6326eeb3" y="178.8"/>
      </g>
     </g>
     <g id="text_27">
      <!-- 25000 -->
      <g transform="translate(105.1875 182.599219)scale(0.1 -0.1)">
       <use xlink:href="#DejaVuSans-50"/>
       <use x="63.623047" xlink:href="#DejaVuSans-53"/>
       <use x="127.246094" xlink:href="#DejaVuSans-48"/>
       <use x="190.869141" xlink:href="#DejaVuSans-48"/>
       <use x="254.492188" xlink:href="#DejaVuSans-48"/>
      </g>
     </g>
    </g>
    <g id="ytick_7">
     <g id="line2d_53">
      <path clip-path="url(#pfd66995547)" d="M 144 86.4 
L 1036.8 86.4 
" style="fill:none;stroke:#b0b0b0;stroke-linecap:square;stroke-opacity:0.5;stroke-width:0.8;"/>
     </g>
     <g id="line2d_54">
      <g>
       <use style="stroke:#000000;stroke-width:0.8;" x="144" xlink:href="#mfc6326eeb3" y="86.4"/>
      </g>
     </g>
     <g id="text_28">
      <!-- 30000 -->
      <g transform="translate(105.1875 90.199219)scale(0.1 -0.1)">
       <use xlink:href="#DejaVuSans-51"/>
       <use x="63.623047" xlink:href="#DejaVuSans-48"/>
       <use x="127.246094" xlink:href="#DejaVuSans-48"/>
       <use x="190.869141" xlink:href="#DejaVuSans-48"/>
       <use x="254.492188" xlink:href="#DejaVuSans-48"/>
      </g>
     </g>
    </g>
    <g id="text_29">
     <!-- Number of Patient -->
     <defs>
      <path d="M 9.8125 72.90625 
L 23.09375 72.90625 
L 55.421875 11.921875 
L 55.421875 72.90625 
L 64.984375 72.90625 
L 64.984375 0 
L 51.703125 0 
L 19.390625 60.984375 
L 19.390625 0 
L 9.8125 0 
z
" id="DejaVuSans-78"/>
      <path d="M 8.5 21.578125 
L 8.5 54.6875 
L 17.484375 54.6875 
L 17.484375 21.921875 
Q 17.484375 14.15625 20.5 10.265625 
Q 23.53125 6.390625 29.59375 6.390625 
Q 36.859375 6.390625 41.078125 11.03125 
Q 45.3125 15.671875 45.3125 23.6875 
L 45.3125 54.6875 
L 54.296875 54.6875 
L 54.296875 0 
L 45.3125 0 
L 45.3125 8.40625 
Q 42.046875 3.421875 37.71875 1 
Q 33.40625 -1.421875 27.6875 -1.421875 
Q 18.265625 -1.421875 13.375 4.4375 
Q 8.5 10.296875 8.5 21.578125 
z
M 31.109375 56 
z
" id="DejaVuSans-117"/>
      <path d="M 52 44.1875 
Q 55.375 50.25 60.0625 53.125 
Q 64.75 56 71.09375 56 
Q 79.640625 56 84.28125 50.015625 
Q 88.921875 44.046875 88.921875 33.015625 
L 88.921875 0 
L 79.890625 0 
L 79.890625 32.71875 
Q 79.890625 40.578125 77.09375 44.375 
Q 74.3125 48.1875 68.609375 48.1875 
Q 61.625 48.1875 57.5625 43.546875 
Q 53.515625 38.921875 53.515625 30.90625 
L 53.515625 0 
L 44.484375 0 
L 44.484375 32.71875 
Q 44.484375 40.625 41.703125 44.40625 
Q 38.921875 48.1875 33.109375 48.1875 
Q 26.21875 48.1875 22.15625 43.53125 
Q 18.109375 38.875 18.109375 30.90625 
L 18.109375 0 
L 9.078125 0 
L 9.078125 54.6875 
L 18.109375 54.6875 
L 18.109375 46.1875 
Q 21.1875 51.21875 25.484375 53.609375 
Q 29.78125 56 35.6875 56 
Q 41.65625 56 45.828125 52.96875 
Q 50 49.953125 52 44.1875 
z
" id="DejaVuSans-109"/>
      <path d="M 48.6875 27.296875 
Q 48.6875 37.203125 44.609375 42.84375 
Q 40.53125 48.484375 33.40625 48.484375 
Q 26.265625 48.484375 22.1875 42.84375 
Q 18.109375 37.203125 18.109375 27.296875 
Q 18.109375 17.390625 22.1875 11.75 
Q 26.265625 6.109375 33.40625 6.109375 
Q 40.53125 6.109375 44.609375 11.75 
Q 48.6875 17.390625 48.6875 27.296875 
z
M 18.109375 46.390625 
Q 20.953125 51.265625 25.265625 53.625 
Q 29.59375 56 35.59375 56 
Q 45.5625 56 51.78125 48.09375 
Q 58.015625 40.1875 58.015625 27.296875 
Q 58.015625 14.40625 51.78125 6.484375 
Q 45.5625 -1.421875 35.59375 -1.421875 
Q 29.59375 -1.421875 25.265625 0.953125 
Q 20.953125 3.328125 18.109375 8.203125 
L 18.109375 0 
L 9.078125 0 
L 9.078125 75.984375 
L 18.109375 75.984375 
z
" id="DejaVuSans-98"/>
      <path d="M 41.109375 46.296875 
Q 39.59375 47.171875 37.8125 47.578125 
Q 36.03125 48 33.890625 48 
Q 26.265625 48 22.1875 43.046875 
Q 18.109375 38.09375 18.109375 28.8125 
L 18.109375 0 
L 9.078125 0 
L 9.078125 54.6875 
L 18.109375 54.6875 
L 18.109375 46.1875 
Q 20.953125 51.171875 25.484375 53.578125 
Q 30.03125 56 36.53125 56 
Q 37.453125 56 38.578125 55.875 
Q 39.703125 55.765625 41.0625 55.515625 
z
" id="DejaVuSans-114"/>
      <path id="DejaVuSans-32"/>
      <path d="M 30.609375 48.390625 
Q 23.390625 48.390625 19.1875 42.75 
Q 14.984375 37.109375 14.984375 27.296875 
Q 14.984375 17.484375 19.15625 11.84375 
Q 23.34375 6.203125 30.609375 6.203125 
Q 37.796875 6.203125 41.984375 11.859375 
Q 46.1875 17.53125 46.1875 27.296875 
Q 46.1875 37.015625 41.984375 42.703125 
Q 37.796875 48.390625 30.609375 48.390625 
z
M 30.609375 56 
Q 42.328125 56 49.015625 48.375 
Q 55.71875 40.765625 55.71875 27.296875 
Q 55.71875 13.875 49.015625 6.21875 
Q 42.328125 -1.421875 30.609375 -1.421875 
Q 18.84375 -1.421875 12.171875 6.21875 
Q 5.515625 13.875 5.515625 27.296875 
Q 5.515625 40.765625 12.171875 48.375 
Q 18.84375 56 30.609375 56 
z
" id="DejaVuSans-111"/>
      <path d="M 37.109375 75.984375 
L 37.109375 68.5 
L 28.515625 68.5 
Q 23.6875 68.5 21.796875 66.546875 
Q 19.921875 64.59375 19.921875 59.515625 
L 19.921875 54.6875 
L 34.71875 54.6875 
L 34.71875 47.703125 
L 19.921875 47.703125 
L 19.921875 0 
L 10.890625 0 
L 10.890625 47.703125 
L 2.296875 47.703125 
L 2.296875 54.6875 
L 10.890625 54.6875 
L 10.890625 58.5 
Q 10.890625 67.625 15.140625 71.796875 
Q 19.390625 75.984375 28.609375 75.984375 
z
" id="DejaVuSans-102"/>
      <path d="M 19.671875 64.796875 
L 19.671875 37.40625 
L 32.078125 37.40625 
Q 38.96875 37.40625 42.71875 40.96875 
Q 46.484375 44.53125 46.484375 51.125 
Q 46.484375 57.671875 42.71875 61.234375 
Q 38.96875 64.796875 32.078125 64.796875 
z
M 9.8125 72.90625 
L 32.078125 72.90625 
Q 44.34375 72.90625 50.609375 67.359375 
Q 56.890625 61.8125 56.890625 51.125 
Q 56.890625 40.328125 50.609375 34.8125 
Q 44.34375 29.296875 32.078125 29.296875 
L 19.671875 29.296875 
L 19.671875 0 
L 9.8125 0 
z
" id="DejaVuSans-80"/>
      <path d="M 9.421875 54.6875 
L 18.40625 54.6875 
L 18.40625 0 
L 9.421875 0 
z
M 9.421875 75.984375 
L 18.40625 75.984375 
L 18.40625 64.59375 
L 9.421875 64.59375 
z
" id="DejaVuSans-105"/>
      <path d="M 54.890625 33.015625 
L 54.890625 0 
L 45.90625 0 
L 45.90625 32.71875 
Q 45.90625 40.484375 42.875 44.328125 
Q 39.84375 48.1875 33.796875 48.1875 
Q 26.515625 48.1875 22.3125 43.546875 
Q 18.109375 38.921875 18.109375 30.90625 
L 18.109375 0 
L 9.078125 0 
L 9.078125 54.6875 
L 18.109375 54.6875 
L 18.109375 46.1875 
Q 21.34375 51.125 25.703125 53.5625 
Q 30.078125 56 35.796875 56 
Q 45.21875 56 50.046875 50.171875 
Q 54.890625 44.34375 54.890625 33.015625 
z
" id="DejaVuSans-110"/>
     </defs>
     <g transform="translate(99.107812 409.314062)rotate(-90)scale(0.1 -0.1)">
      <use xlink:href="#DejaVuSans-78"/>
      <use x="74.804688" xlink:href="#DejaVuSans-117"/>
      <use x="138.183594" xlink:href="#DejaVuSans-109"/>
      <use x="235.595703" xlink:href="#DejaVuSans-98"/>
      <use x="299.072266" xlink:href="#DejaVuSans-101"/>
      <use x="360.595703" xlink:href="#DejaVuSans-114"/>
      <use x="401.708984" xlink:href="#DejaVuSans-32"/>
      <use x="433.496094" xlink:href="#DejaVuSans-111"/>
      <use x="494.677734" xlink:href="#DejaVuSans-102"/>
      <use x="529.882812" xlink:href="#DejaVuSans-32"/>
      <use x="561.669922" xlink:href="#DejaVuSans-80"/>
      <use x="621.910156" xlink:href="#DejaVuSans-97"/>
      <use x="683.189453" xlink:href="#DejaVuSans-116"/>
      <use x="722.398438" xlink:href="#DejaVuSans-105"/>
      <use x="750.181641" xlink:href="#DejaVuSans-101"/>
      <use x="811.705078" xlink:href="#DejaVuSans-110"/>
      <use x="875.083984" xlink:href="#DejaVuSans-116"/>
     </g>
    </g>
   </g>
   <g id="patch_103">
    <path d="M 144 640.8 
L 144 86.4 
" style="fill:none;stroke:#000000;stroke-linecap:square;stroke-linejoin:miter;stroke-width:0.8;"/>
   </g>
   <g id="patch_104">
    <path d="M 1036.8 640.8 
L 1036.8 86.4 
" style="fill:none;stroke:#000000;stroke-linecap:square;stroke-linejoin:miter;stroke-width:0.8;"/>
   </g>
   <g id="patch_105">
    <path d="M 144 640.8 
L 1036.8 640.8 
" style="fill:none;stroke:#000000;stroke-linecap:square;stroke-linejoin:miter;stroke-width:0.8;"/>
   </g>
   <g id="patch_106">
    <path d="M 144 86.4 
L 1036.8 86.4 
" style="fill:none;stroke:#000000;stroke-linecap:square;stroke-linejoin:miter;stroke-width:0.8;"/>
   </g>
   <g id="text_30">
    <g id="patch_107">
     <path d="M 204.622222 416.283705 
L 513.541597 416.283705 
Q 517.141597 416.283705 517.141597 412.683705 
L 517.141597 346.652955 
Q 517.141597 343.052955 513.541597 343.052955 
L 204.622222 343.052955 
Q 201.022222 343.052955 201.022222 346.652955 
L 201.022222 412.683705 
Q 201.022222 416.283705 204.622222 416.283705 
z
" style="fill:#ffffff;opacity:0.9;stroke:#808080;stroke-linejoin:miter;"/>
    </g>
    <!-- * data source: https://news.sina.cn/zt_d/yiqing0121 -->
    <defs>
     <path d="M 47.015625 60.890625 
L 29.5 51.421875 
L 47.015625 41.890625 
L 44.1875 37.109375 
L 27.78125 47.015625 
L 27.78125 28.609375 
L 22.21875 28.609375 
L 22.21875 47.015625 
L 5.8125 37.109375 
L 2.984375 41.890625 
L 20.515625 51.421875 
L 2.984375 60.890625 
L 5.8125 65.71875 
L 22.21875 55.8125 
L 22.21875 74.21875 
L 27.78125 74.21875 
L 27.78125 55.8125 
L 44.1875 65.71875 
z
" id="DejaVuSans-42"/>
     <path d="M 45.40625 46.390625 
L 45.40625 75.984375 
L 54.390625 75.984375 
L 54.390625 0 
L 45.40625 0 
L 45.40625 8.203125 
Q 42.578125 3.328125 38.25 0.953125 
Q 33.9375 -1.421875 27.875 -1.421875 
Q 17.96875 -1.421875 11.734375 6.484375 
Q 5.515625 14.40625 5.515625 27.296875 
Q 5.515625 40.1875 11.734375 48.09375 
Q 17.96875 56 27.875 56 
Q 33.9375 56 38.25 53.625 
Q 42.578125 51.265625 45.40625 46.390625 
z
M 14.796875 27.296875 
Q 14.796875 17.390625 18.875 11.75 
Q 22.953125 6.109375 30.078125 6.109375 
Q 37.203125 6.109375 41.296875 11.75 
Q 45.40625 17.390625 45.40625 27.296875 
Q 45.40625 37.203125 41.296875 42.84375 
Q 37.203125 48.484375 30.078125 48.484375 
Q 22.953125 48.484375 18.875 42.84375 
Q 14.796875 37.203125 14.796875 27.296875 
z
" id="DejaVuSans-100"/>
     <path d="M 44.28125 53.078125 
L 44.28125 44.578125 
Q 40.484375 46.53125 36.375 47.5 
Q 32.28125 48.484375 27.875 48.484375 
Q 21.1875 48.484375 17.84375 46.4375 
Q 14.5 44.390625 14.5 40.28125 
Q 14.5 37.15625 16.890625 35.375 
Q 19.28125 33.59375 26.515625 31.984375 
L 29.59375 31.296875 
Q 39.15625 29.25 43.1875 25.515625 
Q 47.21875 21.78125 47.21875 15.09375 
Q 47.21875 7.46875 41.1875 3.015625 
Q 35.15625 -1.421875 24.609375 -1.421875 
Q 20.21875 -1.421875 15.453125 -0.5625 
Q 10.6875 0.296875 5.421875 2 
L 5.421875 11.28125 
Q 10.40625 8.6875 15.234375 7.390625 
Q 20.0625 6.109375 24.8125 6.109375 
Q 31.15625 6.109375 34.5625 8.28125 
Q 37.984375 10.453125 37.984375 14.40625 
Q 37.984375 18.0625 35.515625 20.015625 
Q 33.0625 21.96875 24.703125 23.78125 
L 21.578125 24.515625 
Q 13.234375 26.265625 9.515625 29.90625 
Q 5.8125 33.546875 5.8125 39.890625 
Q 5.8125 47.609375 11.28125 51.796875 
Q 16.75 56 26.8125 56 
Q 31.78125 56 36.171875 55.265625 
Q 40.578125 54.546875 44.28125 53.078125 
z
" id="DejaVuSans-115"/>
     <path d="M 48.78125 52.59375 
L 48.78125 44.1875 
Q 44.96875 46.296875 41.140625 47.34375 
Q 37.3125 48.390625 33.40625 48.390625 
Q 24.65625 48.390625 19.8125 42.84375 
Q 14.984375 37.3125 14.984375 27.296875 
Q 14.984375 17.28125 19.8125 11.734375 
Q 24.65625 6.203125 33.40625 6.203125 
Q 37.3125 6.203125 41.140625 7.25 
Q 44.96875 8.296875 48.78125 10.40625 
L 48.78125 2.09375 
Q 45.015625 0.34375 40.984375 -0.53125 
Q 36.96875 -1.421875 32.421875 -1.421875 
Q 20.0625 -1.421875 12.78125 6.34375 
Q 5.515625 14.109375 5.515625 27.296875 
Q 5.515625 40.671875 12.859375 48.328125 
Q 20.21875 56 33.015625 56 
Q 37.15625 56 41.109375 55.140625 
Q 45.0625 54.296875 48.78125 52.59375 
z
" id="DejaVuSans-99"/>
     <path d="M 11.71875 12.40625 
L 22.015625 12.40625 
L 22.015625 0 
L 11.71875 0 
z
M 11.71875 51.703125 
L 22.015625 51.703125 
L 22.015625 39.3125 
L 11.71875 39.3125 
z
" id="DejaVuSans-58"/>
     <path d="M 54.890625 33.015625 
L 54.890625 0 
L 45.90625 0 
L 45.90625 32.71875 
Q 45.90625 40.484375 42.875 44.328125 
Q 39.84375 48.1875 33.796875 48.1875 
Q 26.515625 48.1875 22.3125 43.546875 
Q 18.109375 38.921875 18.109375 30.90625 
L 18.109375 0 
L 9.078125 0 
L 9.078125 75.984375 
L 18.109375 75.984375 
L 18.109375 46.1875 
Q 21.34375 51.125 25.703125 53.5625 
Q 30.078125 56 35.796875 56 
Q 45.21875 56 50.046875 50.171875 
Q 54.890625 44.34375 54.890625 33.015625 
z
" id="DejaVuSans-104"/>
     <path d="M 18.109375 8.203125 
L 18.109375 -20.796875 
L 9.078125 -20.796875 
L 9.078125 54.6875 
L 18.109375 54.6875 
L 18.109375 46.390625 
Q 20.953125 51.265625 25.265625 53.625 
Q 29.59375 56 35.59375 56 
Q 45.5625 56 51.78125 48.09375 
Q 58.015625 40.1875 58.015625 27.296875 
Q 58.015625 14.40625 51.78125 6.484375 
Q 45.5625 -1.421875 35.59375 -1.421875 
Q 29.59375 -1.421875 25.265625 0.953125 
Q 20.953125 3.328125 18.109375 8.203125 
z
M 48.6875 27.296875 
Q 48.6875 37.203125 44.609375 42.84375 
Q 40.53125 48.484375 33.40625 48.484375 
Q 26.265625 48.484375 22.1875 42.84375 
Q 18.109375 37.203125 18.109375 27.296875 
Q 18.109375 17.390625 22.1875 11.75 
Q 26.265625 6.109375 33.40625 6.109375 
Q 40.53125 6.109375 44.609375 11.75 
Q 48.6875 17.390625 48.6875 27.296875 
z
" id="DejaVuSans-112"/>
     <path d="M 25.390625 72.90625 
L 33.6875 72.90625 
L 8.296875 -9.28125 
L 0 -9.28125 
z
" id="DejaVuSans-47"/>
     <path d="M 4.203125 54.6875 
L 13.1875 54.6875 
L 24.421875 12.015625 
L 35.59375 54.6875 
L 46.1875 54.6875 
L 57.421875 12.015625 
L 68.609375 54.6875 
L 77.59375 54.6875 
L 63.28125 0 
L 52.6875 0 
L 40.921875 44.828125 
L 29.109375 0 
L 18.5 0 
z
" id="DejaVuSans-119"/>
     <path d="M 5.515625 54.6875 
L 48.1875 54.6875 
L 48.1875 46.484375 
L 14.40625 7.171875 
L 48.1875 7.171875 
L 48.1875 0 
L 4.296875 0 
L 4.296875 8.203125 
L 38.09375 47.515625 
L 5.515625 47.515625 
z
" id="DejaVuSans-122"/>
     <path d="M 50.984375 -16.609375 
L 50.984375 -23.578125 
L -0.984375 -23.578125 
L -0.984375 -16.609375 
z
" id="DejaVuSans-95"/>
     <path d="M 32.171875 -5.078125 
Q 28.375 -14.84375 24.75 -17.8125 
Q 21.140625 -20.796875 15.09375 -20.796875 
L 7.90625 -20.796875 
L 7.90625 -13.28125 
L 13.1875 -13.28125 
Q 16.890625 -13.28125 18.9375 -11.515625 
Q 21 -9.765625 23.484375 -3.21875 
L 25.09375 0.875 
L 2.984375 54.6875 
L 12.5 54.6875 
L 29.59375 11.921875 
L 46.6875 54.6875 
L 56.203125 54.6875 
z
" id="DejaVuSans-121"/>
     <path d="M 14.796875 27.296875 
Q 14.796875 17.390625 18.875 11.75 
Q 22.953125 6.109375 30.078125 6.109375 
Q 37.203125 6.109375 41.296875 11.75 
Q 45.40625 17.390625 45.40625 27.296875 
Q 45.40625 37.203125 41.296875 42.84375 
Q 37.203125 48.484375 30.078125 48.484375 
Q 22.953125 48.484375 18.875 42.84375 
Q 14.796875 37.203125 14.796875 27.296875 
z
M 45.40625 8.203125 
Q 42.578125 3.328125 38.25 0.953125 
Q 33.9375 -1.421875 27.875 -1.421875 
Q 17.96875 -1.421875 11.734375 6.484375 
Q 5.515625 14.40625 5.515625 27.296875 
Q 5.515625 40.1875 11.734375 48.09375 
Q 17.96875 56 27.875 56 
Q 33.9375 56 38.25 53.625 
Q 42.578125 51.265625 45.40625 46.390625 
L 45.40625 54.6875 
L 54.390625 54.6875 
L 54.390625 -20.796875 
L 45.40625 -20.796875 
z
" id="DejaVuSans-113"/>
     <path d="M 45.40625 27.984375 
Q 45.40625 37.75 41.375 43.109375 
Q 37.359375 48.484375 30.078125 48.484375 
Q 22.859375 48.484375 18.828125 43.109375 
Q 14.796875 37.75 14.796875 27.984375 
Q 14.796875 18.265625 18.828125 12.890625 
Q 22.859375 7.515625 30.078125 7.515625 
Q 37.359375 7.515625 41.375 12.890625 
Q 45.40625 18.265625 45.40625 27.984375 
z
M 54.390625 6.78125 
Q 54.390625 -7.171875 48.1875 -13.984375 
Q 42 -20.796875 29.203125 -20.796875 
Q 24.46875 -20.796875 20.265625 -20.09375 
Q 16.0625 -19.390625 12.109375 -17.921875 
L 12.109375 -9.1875 
Q 16.0625 -11.328125 19.921875 -12.34375 
Q 23.78125 -13.375 27.78125 -13.375 
Q 36.625 -13.375 41.015625 -8.765625 
Q 45.40625 -4.15625 45.40625 5.171875 
L 45.40625 9.625 
Q 42.625 4.78125 38.28125 2.390625 
Q 33.9375 0 27.875 0 
Q 17.828125 0 11.671875 7.65625 
Q 5.515625 15.328125 5.515625 27.984375 
Q 5.515625 40.671875 11.671875 48.328125 
Q 17.828125 56 27.875 56 
Q 33.9375 56 38.28125 53.609375 
Q 42.625 51.21875 45.40625 46.390625 
L 45.40625 54.6875 
L 54.390625 54.6875 
z
" id="DejaVuSans-103"/>
    </defs>
    <g transform="translate(204.622222 356.10483)scale(0.12 -0.12)">
     <use xlink:href="#DejaVuSans-42"/>
     <use x="50" xlink:href="#DejaVuSans-32"/>
     <use x="81.787109" xlink:href="#DejaVuSans-100"/>
     <use x="145.263672" xlink:href="#DejaVuSans-97"/>
     <use x="206.542969" xlink:href="#DejaVuSans-116"/>
     <use x="245.751953" xlink:href="#DejaVuSans-97"/>
     <use x="307.03125" xlink:href="#DejaVuSans-32"/>
     <use x="338.818359" xlink:href="#DejaVuSans-115"/>
     <use x="390.917969" xlink:href="#DejaVuSans-111"/>
     <use x="452.099609" xlink:href="#DejaVuSans-117"/>
     <use x="515.478516" xlink:href="#DejaVuSans-114"/>
     <use x="556.560547" xlink:href="#DejaVuSans-99"/>
     <use x="611.541016" xlink:href="#DejaVuSans-101"/>
     <use x="673.064453" xlink:href="#DejaVuSans-58"/>
     <use x="706.755859" xlink:href="#DejaVuSans-32"/>
     <use x="738.542969" xlink:href="#DejaVuSans-104"/>
     <use x="801.921875" xlink:href="#DejaVuSans-116"/>
     <use x="841.130859" xlink:href="#DejaVuSans-116"/>
     <use x="880.339844" xlink:href="#DejaVuSans-112"/>
     <use x="943.816406" xlink:href="#DejaVuSans-115"/>
     <use x="995.916016" xlink:href="#DejaVuSans-58"/>
     <use x="1029.607422" xlink:href="#DejaVuSans-47"/>
     <use x="1063.298828" xlink:href="#DejaVuSans-47"/>
     <use x="1096.990234" xlink:href="#DejaVuSans-110"/>
     <use x="1160.369141" xlink:href="#DejaVuSans-101"/>
     <use x="1221.892578" xlink:href="#DejaVuSans-119"/>
     <use x="1303.679688" xlink:href="#DejaVuSans-115"/>
     <use x="1355.779297" xlink:href="#DejaVuSans-46"/>
     <use x="1387.566406" xlink:href="#DejaVuSans-115"/>
     <use x="1439.666016" xlink:href="#DejaVuSans-105"/>
     <use x="1467.449219" xlink:href="#DejaVuSans-110"/>
     <use x="1530.828125" xlink:href="#DejaVuSans-97"/>
     <use x="1592.107422" xlink:href="#DejaVuSans-46"/>
     <use x="1623.894531" xlink:href="#DejaVuSans-99"/>
     <use x="1678.875" xlink:href="#DejaVuSans-110"/>
     <use x="1742.253906" xlink:href="#DejaVuSans-47"/>
     <use x="1775.945312" xlink:href="#DejaVuSans-122"/>
     <use x="1828.435547" xlink:href="#DejaVuSans-116"/>
     <use x="1867.644531" xlink:href="#DejaVuSans-95"/>
     <use x="1917.644531" xlink:href="#DejaVuSans-100"/>
     <use x="1981.121094" xlink:href="#DejaVuSans-47"/>
     <use x="2014.8125" xlink:href="#DejaVuSans-121"/>
     <use x="2073.992188" xlink:href="#DejaVuSans-105"/>
     <use x="2101.775391" xlink:href="#DejaVuSans-113"/>
     <use x="2165.251953" xlink:href="#DejaVuSans-105"/>
     <use x="2193.035156" xlink:href="#DejaVuSans-110"/>
     <use x="2256.414062" xlink:href="#DejaVuSans-103"/>
     <use x="2319.890625" xlink:href="#DejaVuSans-48"/>
     <use x="2383.513672" xlink:href="#DejaVuSans-49"/>
     <use x="2447.136719" xlink:href="#DejaVuSans-50"/>
     <use x="2510.759766" xlink:href="#DejaVuSans-49"/>
    </g>
    <!--  -->
    <g transform="translate(204.622222 369.875955)scale(0.12 -0.12)"/>
    <!-- * data updated at 2020-01-31 09:23:45 -->
    <defs>
     <path d="M 4.890625 31.390625 
L 31.203125 31.390625 
L 31.203125 23.390625 
L 4.890625 23.390625 
z
" id="DejaVuSans-45"/>
    </defs>
    <g transform="translate(204.622222 383.31333)scale(0.12 -0.12)">
     <use xlink:href="#DejaVuSans-42"/>
     <use x="50" xlink:href="#DejaVuSans-32"/>
     <use x="81.787109" xlink:href="#DejaVuSans-100"/>
     <use x="145.263672" xlink:href="#DejaVuSans-97"/>
     <use x="206.542969" xlink:href="#DejaVuSans-116"/>
     <use x="245.751953" xlink:href="#DejaVuSans-97"/>
     <use x="307.03125" xlink:href="#DejaVuSans-32"/>
     <use x="338.818359" xlink:href="#DejaVuSans-117"/>
     <use x="402.197266" xlink:href="#DejaVuSans-112"/>
     <use x="465.673828" xlink:href="#DejaVuSans-100"/>
     <use x="529.150391" xlink:href="#DejaVuSans-97"/>
     <use x="590.429688" xlink:href="#DejaVuSans-116"/>
     <use x="629.638672" xlink:href="#DejaVuSans-101"/>
     <use x="691.162109" xlink:href="#DejaVuSans-100"/>
     <use x="754.638672" xlink:href="#DejaVuSans-32"/>
     <use x="786.425781" xlink:href="#DejaVuSans-97"/>
     <use x="847.705078" xlink:href="#DejaVuSans-116"/>
     <use x="886.914062" xlink:href="#DejaVuSans-32"/>
     <use x="918.701172" xlink:href="#DejaVuSans-50"/>
     <use x="982.324219" xlink:href="#DejaVuSans-48"/>
     <use x="1045.947266" xlink:href="#DejaVuSans-50"/>
     <use x="1109.570312" xlink:href="#DejaVuSans-48"/>
     <use x="1173.193359" xlink:href="#DejaVuSans-45"/>
     <use x="1209.277344" xlink:href="#DejaVuSans-48"/>
     <use x="1272.900391" xlink:href="#DejaVuSans-49"/>
     <use x="1336.523438" xlink:href="#DejaVuSans-45"/>
     <use x="1372.607422" xlink:href="#DejaVuSans-51"/>
     <use x="1436.230469" xlink:href="#DejaVuSans-49"/>
     <use x="1499.853516" xlink:href="#DejaVuSans-32"/>
     <use x="1531.640625" xlink:href="#DejaVuSans-48"/>
     <use x="1595.263672" xlink:href="#DejaVuSans-57"/>
     <use x="1658.886719" xlink:href="#DejaVuSans-58"/>
     <use x="1692.578125" xlink:href="#DejaVuSans-50"/>
     <use x="1756.201172" xlink:href="#DejaVuSans-51"/>
     <use x="1819.824219" xlink:href="#DejaVuSans-58"/>
     <use x="1853.515625" xlink:href="#DejaVuSans-52"/>
     <use x="1917.138672" xlink:href="#DejaVuSans-53"/>
    </g>
    <!--  -->
    <g transform="translate(204.622222 396.750705)scale(0.12 -0.12)"/>
    <!-- * chart created at 2020-02-24 20:02:50 -->
    <g transform="translate(204.622222 410.18808)scale(0.12 -0.12)">
     <use xlink:href="#DejaVuSans-42"/>
     <use x="50" xlink:href="#DejaVuSans-32"/>
     <use x="81.787109" xlink:href="#DejaVuSans-99"/>
     <use x="136.767578" xlink:href="#DejaVuSans-104"/>
     <use x="200.146484" xlink:href="#DejaVuSans-97"/>
     <use x="261.425781" xlink:href="#DejaVuSans-114"/>
     <use x="302.539062" xlink:href="#DejaVuSans-116"/>
     <use x="341.748047" xlink:href="#DejaVuSans-32"/>
     <use x="373.535156" xlink:href="#DejaVuSans-99"/>
     <use x="428.515625" xlink:href="#DejaVuSans-114"/>
     <use x="469.597656" xlink:href="#DejaVuSans-101"/>
     <use x="531.121094" xlink:href="#DejaVuSans-97"/>
     <use x="592.400391" xlink:href="#DejaVuSans-116"/>
     <use x="631.609375" xlink:href="#DejaVuSans-101"/>
     <use x="693.132812" xlink:href="#DejaVuSans-100"/>
     <use x="756.609375" xlink:href="#DejaVuSans-32"/>
     <use x="788.396484" xlink:href="#DejaVuSans-97"/>
     <use x="849.675781" xlink:href="#DejaVuSans-116"/>
     <use x="888.884766" xlink:href="#DejaVuSans-32"/>
     <use x="920.671875" xlink:href="#DejaVuSans-50"/>
     <use x="984.294922" xlink:href="#DejaVuSans-48"/>
     <use x="1047.917969" xlink:href="#DejaVuSans-50"/>
     <use x="1111.541016" xlink:href="#DejaVuSans-48"/>
     <use x="1175.164062" xlink:href="#DejaVuSans-45"/>
     <use x="1211.248047" xlink:href="#DejaVuSans-48"/>
     <use x="1274.871094" xlink:href="#DejaVuSans-50"/>
     <use x="1338.494141" xlink:href="#DejaVuSans-45"/>
     <use x="1374.578125" xlink:href="#DejaVuSans-50"/>
     <use x="1438.201172" xlink:href="#DejaVuSans-52"/>
     <use x="1501.824219" xlink:href="#DejaVuSans-32"/>
     <use x="1533.611328" xlink:href="#DejaVuSans-50"/>
     <use x="1597.234375" xlink:href="#DejaVuSans-48"/>
     <use x="1660.857422" xlink:href="#DejaVuSans-58"/>
     <use x="1694.548828" xlink:href="#DejaVuSans-48"/>
     <use x="1758.171875" xlink:href="#DejaVuSans-50"/>
     <use x="1821.794922" xlink:href="#DejaVuSans-58"/>
     <use x="1855.486328" xlink:href="#DejaVuSans-53"/>
     <use x="1919.109375" xlink:href="#DejaVuSans-48"/>
    </g>
   </g>
   <g id="text_31">
    <!-- 2019-nCoV in China (https://github.com/cnprogrammer2019/2019-nCoV) -->
    <defs>
     <path d="M 64.40625 67.28125 
L 64.40625 56.890625 
Q 59.421875 61.53125 53.78125 63.8125 
Q 48.140625 66.109375 41.796875 66.109375 
Q 29.296875 66.109375 22.65625 58.46875 
Q 16.015625 50.828125 16.015625 36.375 
Q 16.015625 21.96875 22.65625 14.328125 
Q 29.296875 6.6875 41.796875 6.6875 
Q 48.140625 6.6875 53.78125 8.984375 
Q 59.421875 11.28125 64.40625 15.921875 
L 64.40625 5.609375 
Q 59.234375 2.09375 53.4375 0.328125 
Q 47.65625 -1.421875 41.21875 -1.421875 
Q 24.65625 -1.421875 15.125 8.703125 
Q 5.609375 18.84375 5.609375 36.375 
Q 5.609375 53.953125 15.125 64.078125 
Q 24.65625 74.21875 41.21875 74.21875 
Q 47.75 74.21875 53.53125 72.484375 
Q 59.328125 70.75 64.40625 67.28125 
z
" id="DejaVuSans-67"/>
     <path d="M 28.609375 0 
L 0.78125 72.90625 
L 11.078125 72.90625 
L 34.1875 11.53125 
L 57.328125 72.90625 
L 67.578125 72.90625 
L 39.796875 0 
z
" id="DejaVuSans-86"/>
     <path d="M 31 75.875 
Q 24.46875 64.65625 21.28125 53.65625 
Q 18.109375 42.671875 18.109375 31.390625 
Q 18.109375 20.125 21.3125 9.0625 
Q 24.515625 -2 31 -13.1875 
L 23.1875 -13.1875 
Q 15.875 -1.703125 12.234375 9.375 
Q 8.59375 20.453125 8.59375 31.390625 
Q 8.59375 42.28125 12.203125 53.3125 
Q 15.828125 64.359375 23.1875 75.875 
z
" id="DejaVuSans-40"/>
     <path d="M 8.015625 75.875 
L 15.828125 75.875 
Q 23.140625 64.359375 26.78125 53.3125 
Q 30.421875 42.28125 30.421875 31.390625 
Q 30.421875 20.453125 26.78125 9.375 
Q 23.140625 -1.703125 15.828125 -13.1875 
L 8.015625 -13.1875 
Q 14.5 -2 17.703125 9.0625 
Q 20.90625 20.125 20.90625 31.390625 
Q 20.90625 42.671875 17.703125 53.65625 
Q 14.5 64.65625 8.015625 75.875 
z
" id="DejaVuSans-41"/>
    </defs>
    <g transform="translate(298.3425 80.4)scale(0.16 -0.16)">
     <use xlink:href="#DejaVuSans-50"/>
     <use x="63.623047" xlink:href="#DejaVuSans-48"/>
     <use x="127.246094" xlink:href="#DejaVuSans-49"/>
     <use x="190.869141" xlink:href="#DejaVuSans-57"/>
     <use x="254.492188" xlink:href="#DejaVuSans-45"/>
     <use x="290.576172" xlink:href="#DejaVuSans-110"/>
     <use x="353.955078" xlink:href="#DejaVuSans-67"/>
     <use x="423.779297" xlink:href="#DejaVuSans-111"/>
     <use x="484.960938" xlink:href="#DejaVuSans-86"/>
     <use x="553.369141" xlink:href="#DejaVuSans-32"/>
     <use x="585.15625" xlink:href="#DejaVuSans-105"/>
     <use x="612.939453" xlink:href="#DejaVuSans-110"/>
     <use x="676.318359" xlink:href="#DejaVuSans-32"/>
     <use x="708.105469" xlink:href="#DejaVuSans-67"/>
     <use x="777.929688" xlink:href="#DejaVuSans-104"/>
     <use x="841.308594" xlink:href="#DejaVuSans-105"/>
     <use x="869.091797" xlink:href="#DejaVuSans-110"/>
     <use x="932.470703" xlink:href="#DejaVuSans-97"/>
     <use x="993.75" xlink:href="#DejaVuSans-32"/>
     <use x="1025.537109" xlink:href="#DejaVuSans-40"/>
     <use x="1064.550781" xlink:href="#DejaVuSans-104"/>
     <use x="1127.929688" xlink:href="#DejaVuSans-116"/>
     <use x="1167.138672" xlink:href="#DejaVuSans-116"/>
     <use x="1206.347656" xlink:href="#DejaVuSans-112"/>
     <use x="1269.824219" xlink:href="#DejaVuSans-115"/>
     <use x="1321.923828" xlink:href="#DejaVuSans-58"/>
     <use x="1355.615234" xlink:href="#DejaVuSans-47"/>
     <use x="1389.306641" xlink:href="#DejaVuSans-47"/>
     <use x="1422.998047" xlink:href="#DejaVuSans-103"/>
     <use x="1486.474609" xlink:href="#DejaVuSans-105"/>
     <use x="1514.257812" xlink:href="#DejaVuSans-116"/>
     <use x="1553.466797" xlink:href="#DejaVuSans-104"/>
     <use x="1616.845703" xlink:href="#DejaVuSans-117"/>
     <use x="1680.224609" xlink:href="#DejaVuSans-98"/>
     <use x="1743.701172" xlink:href="#DejaVuSans-46"/>
     <use x="1775.488281" xlink:href="#DejaVuSans-99"/>
     <use x="1830.46875" xlink:href="#DejaVuSans-111"/>
     <use x="1891.650391" xlink:href="#DejaVuSans-109"/>
     <use x="1989.0625" xlink:href="#DejaVuSans-47"/>
     <use x="2022.753906" xlink:href="#DejaVuSans-99"/>
     <use x="2077.734375" xlink:href="#DejaVuSans-110"/>
     <use x="2141.113281" xlink:href="#DejaVuSans-112"/>
     <use x="2204.589844" xlink:href="#DejaVuSans-114"/>
     <use x="2245.671875" xlink:href="#DejaVuSans-111"/>
     <use x="2306.853516" xlink:href="#DejaVuSans-103"/>
     <use x="2370.330078" xlink:href="#DejaVuSans-114"/>
     <use x="2411.443359" xlink:href="#DejaVuSans-97"/>
     <use x="2472.722656" xlink:href="#DejaVuSans-109"/>
     <use x="2570.134766" xlink:href="#DejaVuSans-109"/>
     <use x="2667.546875" xlink:href="#DejaVuSans-101"/>
     <use x="2729.070312" xlink:href="#DejaVuSans-114"/>
     <use x="2770.183594" xlink:href="#DejaVuSans-50"/>
     <use x="2833.806641" xlink:href="#DejaVuSans-48"/>
     <use x="2897.429688" xlink:href="#DejaVuSans-49"/>
     <use x="2961.052734" xlink:href="#DejaVuSans-57"/>
     <use x="3024.675781" xlink:href="#DejaVuSans-47"/>
     <use x="3058.367188" xlink:href="#DejaVuSans-50"/>
     <use x="3121.990234" xlink:href="#DejaVuSans-48"/>
     <use x="3185.613281" xlink:href="#DejaVuSans-49"/>
     <use x="3249.236328" xlink:href="#DejaVuSans-57"/>
     <use x="3312.859375" xlink:href="#DejaVuSans-45"/>
     <use x="3348.943359" xlink:href="#DejaVuSans-110"/>
     <use x="3412.322266" xlink:href="#DejaVuSans-67"/>
     <use x="3482.146484" xlink:href="#DejaVuSans-111"/>
     <use x="3543.328125" xlink:href="#DejaVuSans-86"/>
     <use x="3611.736328" xlink:href="#DejaVuSans-41"/>
    </g>
   </g>
   <g id="legend_1">
    <g id="patch_108">
     <path d="M 151 167.790625 
L 335.160938 167.790625 
Q 337.160938 167.790625 337.160938 165.790625 
L 337.160938 93.4 
Q 337.160938 91.4 335.160938 91.4 
L 151 91.4 
Q 149 91.4 149 93.4 
L 149 165.790625 
Q 149 167.790625 151 167.790625 
z
" style="fill:#ffffff;opacity:0.8;stroke:#cccccc;stroke-linejoin:miter;"/>
    </g>
    <g id="patch_109">
     <path d="M 153 102.998437 
L 173 102.998437 
L 173 95.998437 
L 153 95.998437 
z
" style="fill:#0000ff;"/>
    </g>
    <g id="text_32">
     <!-- cumulative confirmed ( 9720 ) -->
     <defs>
      <path d="M 9.421875 75.984375 
L 18.40625 75.984375 
L 18.40625 0 
L 9.421875 0 
z
" id="DejaVuSans-108"/>
      <path d="M 2.984375 54.6875 
L 12.5 54.6875 
L 29.59375 8.796875 
L 46.6875 54.6875 
L 56.203125 54.6875 
L 35.6875 0 
L 23.484375 0 
z
" id="DejaVuSans-118"/>
     </defs>
     <g transform="translate(181 102.998437)scale(0.1 -0.1)">
      <use xlink:href="#DejaVuSans-99"/>
      <use x="54.980469" xlink:href="#DejaVuSans-117"/>
      <use x="118.359375" xlink:href="#DejaVuSans-109"/>
      <use x="215.771484" xlink:href="#DejaVuSans-117"/>
      <use x="279.150391" xlink:href="#DejaVuSans-108"/>
      <use x="306.933594" xlink:href="#DejaVuSans-97"/>
      <use x="368.212891" xlink:href="#DejaVuSans-116"/>
      <use x="407.421875" xlink:href="#DejaVuSans-105"/>
      <use x="435.205078" xlink:href="#DejaVuSans-118"/>
      <use x="494.384766" xlink:href="#DejaVuSans-101"/>
      <use x="555.908203" xlink:href="#DejaVuSans-32"/>
      <use x="587.695312" xlink:href="#DejaVuSans-99"/>
      <use x="642.675781" xlink:href="#DejaVuSans-111"/>
      <use x="703.857422" xlink:href="#DejaVuSans-110"/>
      <use x="767.236328" xlink:href="#DejaVuSans-102"/>
      <use x="802.441406" xlink:href="#DejaVuSans-105"/>
      <use x="830.224609" xlink:href="#DejaVuSans-114"/>
      <use x="871.322266" xlink:href="#DejaVuSans-109"/>
      <use x="968.734375" xlink:href="#DejaVuSans-101"/>
      <use x="1030.257812" xlink:href="#DejaVuSans-100"/>
      <use x="1093.734375" xlink:href="#DejaVuSans-32"/>
      <use x="1125.521484" xlink:href="#DejaVuSans-40"/>
      <use x="1164.535156" xlink:href="#DejaVuSans-32"/>
      <use x="1196.322266" xlink:href="#DejaVuSans-57"/>
      <use x="1259.945312" xlink:href="#DejaVuSans-55"/>
      <use x="1323.568359" xlink:href="#DejaVuSans-50"/>
      <use x="1387.191406" xlink:href="#DejaVuSans-48"/>
      <use x="1450.814453" xlink:href="#DejaVuSans-32"/>
      <use x="1482.601562" xlink:href="#DejaVuSans-41"/>
     </g>
    </g>
    <g id="patch_110">
     <path d="M 153 117.676562 
L 173 117.676562 
L 173 110.676562 
L 153 110.676562 
z
" style="fill:#add8e6;"/>
    </g>
    <g id="text_33">
     <!-- current suspected ( 15238 ) -->
     <g transform="translate(181 117.676562)scale(0.1 -0.1)">
      <use xlink:href="#DejaVuSans-99"/>
      <use x="54.980469" xlink:href="#DejaVuSans-117"/>
      <use x="118.359375" xlink:href="#DejaVuSans-114"/>
      <use x="159.457031" xlink:href="#DejaVuSans-114"/>
      <use x="200.539062" xlink:href="#DejaVuSans-101"/>
      <use x="262.0625" xlink:href="#DejaVuSans-110"/>
      <use x="325.441406" xlink:href="#DejaVuSans-116"/>
      <use x="364.650391" xlink:href="#DejaVuSans-32"/>
      <use x="396.4375" xlink:href="#DejaVuSans-115"/>
      <use x="448.537109" xlink:href="#DejaVuSans-117"/>
      <use x="511.916016" xlink:href="#DejaVuSans-115"/>
      <use x="564.015625" xlink:href="#DejaVuSans-112"/>
      <use x="627.492188" xlink:href="#DejaVuSans-101"/>
      <use x="689.015625" xlink:href="#DejaVuSans-99"/>
      <use x="743.996094" xlink:href="#DejaVuSans-116"/>
      <use x="783.205078" xlink:href="#DejaVuSans-101"/>
      <use x="844.728516" xlink:href="#DejaVuSans-100"/>
      <use x="908.205078" xlink:href="#DejaVuSans-32"/>
      <use x="939.992188" xlink:href="#DejaVuSans-40"/>
      <use x="979.005859" xlink:href="#DejaVuSans-32"/>
      <use x="1010.792969" xlink:href="#DejaVuSans-49"/>
      <use x="1074.416016" xlink:href="#DejaVuSans-53"/>
      <use x="1138.039062" xlink:href="#DejaVuSans-50"/>
      <use x="1201.662109" xlink:href="#DejaVuSans-51"/>
      <use x="1265.285156" xlink:href="#DejaVuSans-56"/>
      <use x="1328.908203" xlink:href="#DejaVuSans-32"/>
      <use x="1360.695312" xlink:href="#DejaVuSans-41"/>
     </g>
    </g>
    <g id="patch_111">
     <path d="M 153 132.354687 
L 173 132.354687 
L 173 125.354687 
L 153 125.354687 
z
" style="fill:#ff0000;"/>
    </g>
    <g id="text_34">
     <!-- cumulative died ( 213 ) -->
     <g transform="translate(181 132.354687)scale(0.1 -0.1)">
      <use xlink:href="#DejaVuSans-99"/>
      <use x="54.980469" xlink:href="#DejaVuSans-117"/>
      <use x="118.359375" xlink:href="#DejaVuSans-109"/>
      <use x="215.771484" xlink:href="#DejaVuSans-117"/>
      <use x="279.150391" xlink:href="#DejaVuSans-108"/>
      <use x="306.933594" xlink:href="#DejaVuSans-97"/>
      <use x="368.212891" xlink:href="#DejaVuSans-116"/>
      <use x="407.421875" xlink:href="#DejaVuSans-105"/>
      <use x="435.205078" xlink:href="#DejaVuSans-118"/>
      <use x="494.384766" xlink:href="#DejaVuSans-101"/>
      <use x="555.908203" xlink:href="#DejaVuSans-32"/>
      <use x="587.695312" xlink:href="#DejaVuSans-100"/>
      <use x="651.171875" xlink:href="#DejaVuSans-105"/>
      <use x="678.955078" xlink:href="#DejaVuSans-101"/>
      <use x="740.478516" xlink:href="#DejaVuSans-100"/>
      <use x="803.955078" xlink:href="#DejaVuSans-32"/>
      <use x="835.742188" xlink:href="#DejaVuSans-40"/>
      <use x="874.755859" xlink:href="#DejaVuSans-32"/>
      <use x="906.542969" xlink:href="#DejaVuSans-50"/>
      <use x="970.166016" xlink:href="#DejaVuSans-49"/>
      <use x="1033.789062" xlink:href="#DejaVuSans-51"/>
      <use x="1097.412109" xlink:href="#DejaVuSans-32"/>
      <use x="1129.199219" xlink:href="#DejaVuSans-41"/>
     </g>
    </g>
    <g id="patch_112">
     <path d="M 153 147.032812 
L 173 147.032812 
L 173 140.032812 
L 153 140.032812 
z
" style="fill:#008000;"/>
    </g>
    <g id="text_35">
     <!-- cumulative cured ( 171 ) -->
     <g transform="translate(181 147.032812)scale(0.1 -0.1)">
      <use xlink:href="#DejaVuSans-99"/>
      <use x="54.980469" xlink:href="#DejaVuSans-117"/>
      <use x="118.359375" xlink:href="#DejaVuSans-109"/>
      <use x="215.771484" xlink:href="#DejaVuSans-117"/>
      <use x="279.150391" xlink:href="#DejaVuSans-108"/>
      <use x="306.933594" xlink:href="#DejaVuSans-97"/>
      <use x="368.212891" xlink:href="#DejaVuSans-116"/>
      <use x="407.421875" xlink:href="#DejaVuSans-105"/>
      <use x="435.205078" xlink:href="#DejaVuSans-118"/>
      <use x="494.384766" xlink:href="#DejaVuSans-101"/>
      <use x="555.908203" xlink:href="#DejaVuSans-32"/>
      <use x="587.695312" xlink:href="#DejaVuSans-99"/>
      <use x="642.675781" xlink:href="#DejaVuSans-117"/>
      <use x="706.054688" xlink:href="#DejaVuSans-114"/>
      <use x="747.136719" xlink:href="#DejaVuSans-101"/>
      <use x="808.660156" xlink:href="#DejaVuSans-100"/>
      <use x="872.136719" xlink:href="#DejaVuSans-32"/>
      <use x="903.923828" xlink:href="#DejaVuSans-40"/>
      <use x="942.9375" xlink:href="#DejaVuSans-32"/>
      <use x="974.724609" xlink:href="#DejaVuSans-49"/>
      <use x="1038.347656" xlink:href="#DejaVuSans-55"/>
      <use x="1101.970703" xlink:href="#DejaVuSans-49"/>
      <use x="1165.59375" xlink:href="#DejaVuSans-32"/>
      <use x="1197.380859" xlink:href="#DejaVuSans-41"/>
     </g>
    </g>
    <g id="patch_113">
     <path d="M 153 161.710937 
L 173 161.710937 
L 173 154.710937 
L 153 154.710937 
z
" style="fill:#ff7f50;"/>
    </g>
    <g id="text_36">
     <!-- current confirmed ( 9336 ) -->
     <g transform="translate(181 161.710937)scale(0.1 -0.1)">
      <use xlink:href="#DejaVuSans-99"/>
      <use x="54.980469" xlink:href="#DejaVuSans-117"/>
      <use x="118.359375" xlink:href="#DejaVuSans-114"/>
      <use x="159.457031" xlink:href="#DejaVuSans-114"/>
      <use x="200.539062" xlink:href="#DejaVuSans-101"/>
      <use x="262.0625" xlink:href="#DejaVuSans-110"/>
      <use x="325.441406" xlink:href="#DejaVuSans-116"/>
      <use x="364.650391" xlink:href="#DejaVuSans-32"/>
      <use x="396.4375" xlink:href="#DejaVuSans-99"/>
      <use x="451.417969" xlink:href="#DejaVuSans-111"/>
      <use x="512.599609" xlink:href="#DejaVuSans-110"/>
      <use x="575.978516" xlink:href="#DejaVuSans-102"/>
      <use x="611.183594" xlink:href="#DejaVuSans-105"/>
      <use x="638.966797" xlink:href="#DejaVuSans-114"/>
      <use x="680.064453" xlink:href="#DejaVuSans-109"/>
      <use x="777.476562" xlink:href="#DejaVuSans-101"/>
      <use x="839" xlink:href="#DejaVuSans-100"/>
      <use x="902.476562" xlink:href="#DejaVuSans-32"/>
      <use x="934.263672" xlink:href="#DejaVuSans-40"/>
      <use x="973.277344" xlink:href="#DejaVuSans-32"/>
      <use x="1005.064453" xlink:href="#DejaVuSans-57"/>
      <use x="1068.6875" xlink:href="#DejaVuSans-51"/>
      <use x="1132.310547" xlink:href="#DejaVuSans-51"/>
      <use x="1195.933594" xlink:href="#DejaVuSans-54"/>
      <use x="1259.556641" xlink:href="#DejaVuSans-32"/>
      <use x="1291.34375" xlink:href="#DejaVuSans-41"/>
     </g>
    </g>
   </g>
  </g>
 </g>
 <defs>
  <clipPath id="pfd66995547">
   <rect height="554.4" width="892.8" x="144" y="86.4"/>
  </clipPath>
 </defs>
</svg>
